<?xml version="1.0" encoding="UTF-8"?>
<svg width="100px" height="100px" viewBox="0 0 100 100" version="1.1" xmlns="http://www.w3.org/2000/svg" xmlns:xlink="http://www.w3.org/1999/xlink">
    <title>dc-comics</title>
    <g id="Page-2" stroke="none" stroke-width="1" fill="none" fill-rule="evenodd">
        <g id="Desktop-HD" transform="translate(-21.000000, -240.000000)" fill-rule="nonzero">
            <g id="dc-comics" transform="translate(21.000000, 240.000000)">
                <polygon id="Path" points="0 0 100 0 100 100 0 100"></polygon>
                <path d="M95.5,49.9106824 C95.5506482,75.0400051 75.2203072,95.4512369 50.0911274,95.5 C24.9614299,95.5496168 4.54927873,75.2186422 4.5,50.0893195 C4.45089943,24.9605146 24.7807227,4.54928278 49.9114558,4.5 C75.0401177,4.44986735 95.4512334,24.7813597 95.5,49.9106824 Z" id="Path" fill="#000000"></path>
                <path d="M5,49.8379835 C5.04991362,74.5115168 25.1642124,94.5481866 49.8395378,94.5 C74.5138251,94.4516393 94.5476688,74.3360708 94.5,49.6620184 C94.4500845,24.9864088 74.3363048,4.95129623 49.6614984,5 C24.9866921,5.04888163 4.95284841,25.162893 5,49.8379835 Z" id="Path" fill="#FFFFFF"></path>
                <path d="M7,50.3360757 C7.04623374,74.1845075 26.4871244,93.5476172 50.3355572,93.5 C74.1824345,93.4522069 93.5471006,74.0139097 93.5,50.1659965 C93.4542829,26.3175647 74.0133923,6.95289943 50.1644409,7 C26.3165266,7.04779121 6.95341609,26.487644 7,50.3360757 Z" id="Path" fill="#000000"></path>
                <path d="M23.5,50.3019388 C23.5286164,64.7757151 35.3267718,76.5274783 49.802195,76.5 C64.2760602,76.4703477 76.0285125,64.6723607 76,50.1980649 C75.9713836,35.7232499 64.1727088,23.9714867 49.697805,24 C35.2244592,24.0291366 23.4714875,35.8271237 23.5,50.3019388 L23.5,50.3019388 Z" id="Path" fill="#FFFFFF"></path>
                <path d="M24.5,50.2998027 C24.5296134,64.2227574 35.8767751,75.5284789 49.8005736,75.5 C63.7233345,75.4724509 75.0284774,64.1221145 75,50.2001973 C74.9745273,36.2772426 63.6226968,24.9715211 49.7009734,25 C35.7771749,25.0270303 24.474107,36.3763291 24.5,50.2998027 Z" id="Path" fill="#000000"></path>
                <path d="M25.493243,50.2094406 C25.5202427,63.8532549 36.5968732,74.9289687 50.1871504,74.9019636 C63.7774277,74.8743394 74.8120777,63.7544018 74.7867259,50.1131889 C74.7592134,36.4698949 63.6810281,25.3936608 50.0907508,25.4206659 C36.4999553,25.4477699 25.4663418,36.5682278 25.493243,50.2094406 L25.493243,50.2094406 Z M28.7745082,19.8625676 L33.1731308,16.5 L31.6535407,21.8760499 L36.2366702,25.0559993 L30.7341161,25.146528 L29.182911,30.4486982 L27.3627198,25.155893 L21.7658392,25.2204077 L26.1483952,21.8703268 L24.3494534,16.7304839 L28.7745082,19.8625676 L28.7745082,19.8625676 Z M70.9167027,75.4133491 L75.3148071,72.0518221 L73.7952169,77.4273517 L78.3788647,80.6073011 L72.8763106,80.6973095 L71.3245872,86 L69.504396,80.7077151 L63.908552,80.7717095 L68.2905897,77.4211084 L66.4921662,72.2817857 L70.9167027,75.4133491 L70.9167027,75.4133491 Z M23.008669,69.4077608 L27.4062551,66.0462338 L25.8871833,71.4212431 L30.4703128,74.6011925 L24.9682769,74.6917212 L23.4160353,79.9944117 L21.5968806,74.7016065 L16,74.7650806 L20.3815195,71.4155201 L18.5825777,66.2761974 L23.008669,69.4077608 L23.008669,69.4077608 Z M78.037838,27.337946 L82.4359424,23.9753784 L80.9158339,29.3509081 L85.5,32.5313777 L79.9964093,32.6219064 L78.4457225,37.9245969 L76.6255313,32.6312714 L71.0302055,32.6957861 L75.4122433,29.3457053 L73.6122649,24.2058623 L78.037838,27.337946 Z" id="Shape" fill="#FFFFFF"></path>
                <path d="M36.8627046,40 L25.5,48.699604 L43.9084275,73 L55.052936,64.4678955 L56,57.4381011 L43.4704878,40.8986894 L36.8627046,40 L36.8627046,40 Z M46.2642234,59.5414388 L45.2954945,60.2824816 L38.0645887,50.7376014 L39.0328017,49.99604 L46.2642234,59.5414388 L46.2642234,59.5414388 Z" id="Shape" fill="#000000"></path>
                <path d="M26.5,49.1807298 C32.3858728,56.9536003 38.2714589,64.7266903 44.1567582,72.5 C44.9843304,71.8652614 54.2686714,64.7543273 54.6209939,64.4848092 C54.6770569,64.0569944 55.4418796,58.3774552 55.5,57.949123 L43.295754,41.8318334 C42.8724527,41.7749294 37.6045883,41.0574213 37.1812869,41 L26.5,49.1807298 Z M44.9714719,60.9769346 L37.4122253,50.993899 L39.2957363,49.550606 L47.203705,59.9955988 L45.3196797,61.4383745 L44.9714719,60.9769346 L44.9714719,60.9769346 Z" id="Shape" fill="#FFFFFF"></path>
                <path d="M27,48.9992114 L44.1882054,71.5 L54.1367199,63.9468952 L54.9635471,57.8589846 L42.8880117,42.0495442 L37.1695578,41.2782252 L27,48.9992114 L27,48.9992114 Z M44.7929466,61.5570538 L36.4224939,50.5990226 L39.2611284,48.4435915 L47.9855632,59.8652456 L45.1469287,62.020157 L44.7929466,61.5570538 L44.7929466,61.5570538 Z M59.758728,43.9861577 L62.3116743,47.329233 L61.3341831,48.0724852 L54.1372412,38.6518944 L55.1157751,37.9091621 L57.6702854,41.2522373 L65.0137207,35.6762871 L59.8374486,28.9007384 L53.1607926,28 L45.0989665,34.1201355 L44.2830872,40.1337209 L57.2996207,57.174465 L64.1941921,58.1043098 L71.5428406,52.5236818 L72.5,45.4773398 L67.1011206,38.4107273 L59.758728,43.9861577 L59.758728,43.9861577 Z" id="Shape" fill="#000000"></path>
                <path d="M45.7509271,34.3499937 L45,39.9077486 L57.7266494,56.6311116 L64.1423826,57.5 C64.4990729,57.2286354 70.7536697,52.4625344 71.1077526,52.1916917 C71.1666795,51.7585521 71.943159,46.0291069 72,45.597011 C71.7413473,45.2572835 67.7030284,39.9479315 67.1017653,39.1588868 C66.3398872,39.7397114 61.4479102,43.4683648 60.6849892,44.0486675 C61.2116811,44.7396034 63.2402271,47.4062821 63.2402271,47.4062821 L61.3326638,48.8606917 L53.4260275,38.471082 L55.3335909,37.0166724 C55.3335909,37.0166724 57.3637013,39.6828292 57.8877858,40.3732432 C58.6496639,39.7929406 63.5426839,36.0642871 64.303519,35.4829407 L59.6274336,29.3386209 C59.1977364,29.280695 53.8578106,28.557404 53.4275919,28.5 C53.0688157,28.7718864 46.1086604,34.0765417 45.7509271,34.3499937 L45.7509271,34.3499937 Z" id="Path" fill="#FFFFFF"></path>
                <path d="M46.1783424,35.0023766 L45.5,40.0289139 L57.7994053,56.2043512 C58.2043473,56.2586 63.2653491,56.9447179 63.6702911,57 C64.0210689,56.7323727 69.8290211,52.3015387 70.1808306,52.034428 C70.2401533,51.5973378 70.9850404,46.0825615 71,45.9812971 L66.6493233,40.2598587 L61.2210366,44.3992992 L63.7487003,47.7229414 L60.9409301,49.8644767 L52.4185767,38.6556447 L55.2253151,36.5141094 C55.2253151,36.5141094 57.2335181,39.1537002 57.7529788,39.8382682 C58.4823903,39.281314 62.4492748,36.2552652 63.179718,35.6988277 C62.6014504,34.9377947 59.300528,30.5968587 59.0487933,30.2667161 L53.3904376,29.5 C53.038628,29.7702106 46.5311836,34.7331993 46.1783424,35.0023766 L46.1783424,35.0023766 Z" id="Path" fill="#000000"></path>
            </g>
        </g>
    </g>
</svg>