<?xml version="1.0" encoding="UTF-8"?>
<svg width="232px" height="80px" viewBox="0 0 232 80" version="1.1" xmlns="http://www.w3.org/2000/svg" xmlns:xlink="http://www.w3.org/1999/xlink">
    <title>funko</title>
    <g id="Page-2" stroke="none" stroke-width="1" fill="none" fill-rule="evenodd">
        <g id="Desktop-HD" transform="translate(-136.000000, -250.000000)" fill="#000000">
            <g id="funko" transform="translate(136.000000, 250.000000)">
                <path d="M68.1364972,35.5172881 C66.64,34.0935593 61.9353672,34.6503955 52.8646328,35.159774 C54.6553672,27.5918644 55.9335593,20.9857627 59.2777401,15.8381921 C74.8122034,16.7082486 93.9028249,18.8881356 115.768136,18.8248588 C158.812203,18.7014689 159.201356,2.67344633 159.201356,2.67344633 C140.885876,7.95073446 115.730169,6.39096045 96.7059887,4.63819209 C72.8189831,2.44248588 48.9288136,-3.05627119 29.1927684,2.22101695 C5.88474576,8.45378531 3.64158192,25.76 4.47367232,33.1855367 C13.8259887,20.9129944 26.4750282,16.5468927 42.680226,15.6293785 C44.2146893,15.5439548 45.8314124,15.5123164 47.4829379,15.499661 C44.540565,18.5844068 42.2562712,23.4440678 39.8897175,31.0214689 C39.3771751,32.6824859 38.8741243,34.2707345 38.3774011,35.8273446 C18.4451977,37.5579661 14.5758192,46.6635028 15.7211299,49.0522034 C16.939209,51.5959322 24.0103955,48.2612429 32.8375141,47.280452 C33.400678,47.2171751 33.9448588,47.1665537 34.4827119,47.1096045 C31.0341243,56.0221469 27.2248588,62.3877966 21.0933333,66.1084746 C11.7441808,71.7780791 1.96158192,69.1552542 0,67.579661 C0.759322034,77.9823729 16.4013559,83.6519774 29.6958192,76.3751412 C40.2946893,70.5789831 46.4262147,56.740339 49.7862147,46.3692655 C52.709503,46.3599754 55.6319469,46.2681874 58.5500565,46.0940113 C66.5703955,45.5561582 70.0917514,37.380791 68.1364972,35.520452 M228.986215,23.8648588 C228.185747,23.608435 227.316008,23.6824347 226.570367,24.0704056 C225.824727,24.4583764 225.264986,25.1281615 225.015593,25.9308475 C224.76565,26.7218079 224.838418,27.5444068 225.154802,28.240452 C222.139661,30.999322 219.352316,33.0431638 217.884294,32.5685876 C215.985989,31.9548023 217.422373,26.7945763 219.276384,22.0899435 C220.957181,22.3462415 222.572681,21.3347039 223.076158,19.7107345 C223.658806,17.8882253 222.665262,15.9364187 220.848814,15.3351412 C219.977024,15.0558993 219.029812,15.1364295 218.217676,15.5588356 C217.405539,15.9812418 216.795757,16.7105304 216.523842,17.5846328 C216.112542,18.8818079 216.495367,20.2422599 217.393898,21.1344633 C214.926102,25.6587571 212.353898,29.5724294 210.101243,28.9143503 L210.018983,28.8922034 C207.753672,28.1581921 207.902373,23.440904 208.494011,18.2775141 C209.759548,18.0971751 210.879548,17.2049718 211.294011,15.8919774 C211.878791,14.0702349 210.886224,12.1175739 209.069831,11.5163842 C208.197629,11.2361637 207.249604,11.3161999 206.436727,11.7386817 C205.623851,12.1611635 205.013569,12.8910368 204.741695,13.7658757 C204.222825,15.4015819 204.963164,17.1416949 206.418531,17.9105085 C205.225763,22.8302825 203.425537,27.8702825 201.527232,27.2564972 C200.068701,26.7819209 198.977175,23.5041808 198.110282,19.5050847 C199.217839,18.8844424 199.854061,17.6680152 199.732075,16.4042913 C199.610088,15.1405673 198.75294,14.068294 197.547119,13.6709605 C196.746232,13.4146651 195.876129,13.4891009 195.130412,13.8777054 C194.384696,14.2663099 193.825229,14.9368452 193.576497,15.740113 C193.300392,16.6061322 193.405389,17.548691 193.865305,18.3327199 C194.32522,19.1167489 195.096701,19.6683452 195.987345,19.8499435 L196.547345,33.2583051 L218.491751,40.3864407 L226.660791,29.7875706 C227.485526,30.1826308 228.441289,30.1995368 229.279479,29.8338914 C230.11767,29.4682459 230.755437,28.7561913 231.026893,27.8829379 C231.561582,26.2029379 230.647232,24.4027119 228.986215,23.8648588" id="Shape"></path>
                <path d="M203.767232,61.2361582 C199.695367,68.4687006 193.877062,72.1514124 190.776497,69.4684746 C187.675932,66.7855367 188.466893,58.7462147 192.538757,51.5136723 C196.610621,44.2842938 202.425763,40.5984181 205.526328,43.2845198 C208.626893,45.9674576 207.839096,54.0067797 203.767232,61.2361582 M198.24,36.3841808 C198.24,36.3841808 193.022825,38.3457627 189.393898,41.7816949 C188.16,42.9523164 186.970395,44.1640678 185.891525,45.5087006 L185.888362,45.5087006 L185.869379,45.540339 C184.866441,46.7932203 184.081808,48.1346893 183.24339,49.5710734 C182.072768,51.5579661 181.050847,53.6524294 180.244068,55.8449718 L180.244068,55.8354802 C180.244068,55.8354802 178.143277,60.2711864 176.60565,62.4858757 C175.112316,64.6372881 172.277514,66.6937853 171.144859,67.4720904 C169.819947,68.0900107 168.450342,68.6071821 167.047684,69.019209 C157.730169,71.7369492 156.018531,65.0327684 158.103503,61.8689266 C158.853333,60.7331073 164.010395,56.7688136 167.534915,53.8359322 C174.352994,48.1726554 179.025989,44.5785311 182.234124,41.319774 C185.63209,37.8711864 183.436384,35.9665537 180.79774,35.5109605 C174.216949,34.3751412 171.204972,36.1342373 169.287684,37.779435 C166.978079,39.7631638 153.199548,56.3764972 153.199548,56.3764972 C153.199548,56.3764972 175.624859,12.9844068 179.304407,5.5240678 C182.341695,-0.623276836 167.76904,-1.47435028 163.744633,7.36858757 C161.40339,12.5129944 145.331073,49.7514124 143.369492,54.3579661 C139.781695,62.780113 139.566554,64.0962712 137.772655,65.5706215 C137.754583,65.5929273 137.737686,65.6161603 137.722034,65.640226 L137.582825,65.7288136 C137.576497,65.7288136 137.573333,65.7351412 137.567006,65.7414689 C135.839548,67.1683616 133.422373,68.4560452 131.808814,68.4307345 C130.837514,68.4212429 130.264859,67.839096 130.100339,66.6463277 C129.932655,65.4567232 130.075028,63.9380791 130.527458,62.0903955 C130.796384,60.9893785 131.153898,59.7839548 131.609492,58.4741243 C132.061921,57.1642938 132.55548,55.8418079 133.090169,54.500339 C133.621695,53.1588701 134.16904,51.8490395 134.735367,50.5708475 L136.28565,47.04 C136.750734,45.9706215 137.146215,45.0467797 137.468927,44.2748023 C137.791638,43.4964972 137.99096,42.9459887 138.070056,42.620113 C138.60791,40.4180791 138.503503,38.4343503 137.940339,37.1814689 C137.374011,35.9317514 136.355254,35.3053107 134.87774,35.3053107 C133.40339,35.3053107 132.008136,35.719774 130.723616,36.4569492 C129.309379,37.2668927 128.021695,38.1527684 126.68339,39.7631638 C125.546822,41.1500811 124.435083,42.5571598 123.348701,43.9837288 C122.611525,44.9518644 121.826893,45.9611299 120.991638,47.0210169 C120.159548,48.0777401 119.374915,49.0775141 118.640904,50.0329944 C117.584398,51.4039197 116.52662,52.7738638 115.467571,54.1428249 L114.581695,54.1428249 C114.632316,53.9340113 114.777853,53.5258757 115.011977,52.9152542 C115.252429,52.3046328 115.537175,51.5864407 115.872542,50.7701695 C116.612908,48.9444259 117.340609,47.1135721 118.055593,45.2777401 C118.409944,44.3697175 118.72,43.5376271 118.998418,42.7751412 C119.270508,42.0158192 119.463503,41.4146893 119.56791,40.9654237 C119.969718,39.3297175 119.979209,38.019887 119.599548,37.039096 C119.219887,36.0551412 118.235932,35.5647458 116.641356,35.5647458 C115.04678,35.5647458 113.673672,36.0266667 112.51887,36.9473446 C111.362388,37.872093 110.43186,39.0482371 109.797966,40.3864407 C108.804489,42.4789128 107.859305,44.5939738 106.963164,46.7299435 C104.813281,51.845491 102.850398,57.037632 101.078418,62.2960452 C100.705315,63.406112 100.349865,64.5220342 100.012203,65.6433898 C97.9145763,66.7096045 95.7410169,67.6176271 93.4883616,68.3010169 C92.6246328,68.5636158 91.5520904,68.7439548 90.9319774,68.079548 C90.4763842,67.5954802 90.4668927,66.8456497 90.5301695,66.1780791 C90.8528814,62.6535593 92.3620339,59.3694915 93.7920904,56.139209 C96.2024844,50.6986995 98.4539842,45.1891719 100.543729,39.6176271 C100.803164,38.9215819 101.065763,38.1527684 100.837966,37.4472316 C100.483616,36.3367232 99.1611299,35.9317514 98.0221469,35.779887 C95.5543503,35.4540113 92.7068927,35.700791 91.1123164,37.6338983 C90.5871186,38.2729944 90.2485876,39.0449718 89.9163842,39.8042938 L81.7283616,58.4836158 C80.0072316,62.4067797 77.8779661,66.7222599 73.8693785,68.1175141 C73.1733333,68.3611299 72.3918644,68.4971751 71.7179661,68.1966102 C70.8574011,67.8137853 70.4112994,66.7950282 70.4144633,65.8427119 C70.4176271,64.8903955 70.7814689,63.9823729 71.1389831,63.099661 C74.5116384,54.7914124 77.0047458,49.0142373 80.3774011,40.7028249 C80.5355932,40.3231638 81.3708475,38.380565 81.3961582,37.4693785 C81.3817732,36.8837085 81.0461458,36.3535146 80.5229379,36.0899435 C78.3715254,35.0933333 75.7518644,35.6944633 73.8092655,37.0612429 C70.7498305,39.2126554 69.0761582,42.6928814 67.5670056,46.0054237 C65.8933333,49.6786441 64.1943503,53.3455367 62.6693785,57.0915254 C60.9261017,61.3785311 59.059435,65.5294915 58.1071186,70.0696045 C57.6230508,72.3887006 57.7559322,75.3785311 59.4232768,77.0427119 C60.5116384,78.1279096 62.1378531,78.4411299 63.6628249,78.4885876 C69.8386441,78.6847458 75.6854237,75.4164972 80.1938983,71.1421469 C80.3520904,73.4042938 80.6842938,75.9954802 82.5572881,77.2483616 C83.7532203,78.0424859 85.2908475,78.0677966 86.7145763,77.9127684 C89.5778531,77.6090395 92.3493785,76.7105085 95.0259887,75.6348023 C96.1428249,75.1823729 97.2438418,74.7014689 98.3322034,74.1889266 C98.3448588,74.6729944 98.3954802,75.1317514 98.480904,75.5588701 C98.6707345,76.4352542 99.0630508,77.1344633 99.6768362,77.6564972 C100.284294,78.1753672 101.19548,78.4379661 102.407232,78.4379661 C103.378531,78.4379661 104.289718,78.2133333 105.137627,77.7672316 C105.982373,77.3242938 106.852429,76.4890395 107.738305,75.2677966 L125.012881,52.0420339 L125.721582,52.0420339 C124.847217,54.2550105 124.007641,56.4815747 123.203164,58.720904 C122.514836,60.6157609 121.925565,62.5451486 121.43774,64.5012429 C120.324068,69.0571751 120.032994,72.5215819 120.561356,74.8881356 C121.089718,77.2546893 122.165424,78.4379661 123.788475,78.4379661 C125.411525,78.4379661 127.015593,78.2070056 128.607006,77.7450847 C130.213353,77.2760815 131.779258,76.6782866 133.289492,75.9575141 C134.352542,75.4544633 135.39661,74.8849718 136.437514,74.2901695 C136.43435,74.6824859 136.320452,75.4323164 136.304633,75.7866667 C136.250847,77.0680226 136.440678,77.3369492 137.032316,77.8874576 C137.620791,78.4411299 138.234576,78.4917514 139.500113,78.4917514 C140.449266,78.4917514 140.79096,78.4063277 141.623051,77.7988701 C142.407684,77.2293785 145.251977,72.9771751 147.441356,69.9493785 C147.802034,69.4526554 148.197514,68.9369492 148.634124,68.4022599 C147.830508,72.1577401 149.557966,77.640678 154.734011,78.4949153 C159.76452,79.3238418 167.946215,78.1690395 178.503955,69.9367232 C178.690621,71.0851977 178.978531,72.1703955 179.377175,73.1828249 C180.142825,75.1222599 181.348249,76.6946893 182.990282,77.8969492 C184.632316,79.099209 186.818531,79.7035028 189.545763,79.7035028 C191.43774,79.7035028 193.301243,79.3744633 195.133107,78.7163842 C196.997147,78.0463174 198.771679,77.1494882 200.416723,76.0461017 C202.135376,74.8916975 203.724392,73.5551417 205.156158,72.059661 C207.99367,69.1006156 210.32875,65.6979181 212.069153,61.9859887 C213.587797,58.5310734 214.31548,55.9430508 215.074802,51.9629379 C215.422825,49.8431638 215.612655,47.9701695 215.587345,46.2553672 C215.587345,46.2553672 215.397514,42.0221469 214.821695,41.6361582 C214.24904,41.2501695 198.243164,36.3841808 198.243164,36.3841808" id="Shape"></path>
            </g>
        </g>
    </g>
</svg>