<?xml version="1.0" encoding="UTF-8"?>
<svg width="468px" height="60px" viewBox="0 0 468 60" version="1.1" xmlns="http://www.w3.org/2000/svg" xmlns:xlink="http://www.w3.org/1999/xlink">
    <title>game-of-throne</title>
    <g id="Page-2" stroke="none" stroke-width="1" fill="none" fill-rule="evenodd">
        <g id="Desktop-HD" transform="translate(-380.000000, -260.000000)" fill="#000000" fill-rule="nonzero">
            <g id="game-of-throne" transform="translate(380.000000, 260.000000)">
                <path d="M51.076237,33.9132888 C50.0597375,34.4840479 49.5514877,35.4875647 49.5514877,36.9262433 L49.5514877,55.7463899 C49.5514877,55.7963974 49.5014802,55.8709279 49.4024268,55.9699813 C48.2063163,56.8655116 46.8920576,57.5912504 45.49703,58.1265566 C44.0765976,58.6748576 42.6070445,59.0862423 41.1083872,59.3551073 C39.608304,59.6251463 38.0924791,59.7989249 36.5702026,59.8753781 C35.0574744,59.9494278 33.5817711,59.9859717 32.1440542,59.9859717 C29.9610326,59.9859717 27.7549306,59.9114413 25.5233439,59.7628612 C21.6049644,59.4652201 18.0717391,58.4742052 14.9231873,56.7874123 C11.7731929,55.1015811 9.09490424,52.907981 6.88928307,50.2042077 C4.68221937,47.501877 2.98388626,44.4268939 1.7938029,40.9797393 C0.603238689,37.5335464 0.00795658484,33.9007869 0.00795658484,30.0819416 C0.00795658484,25.6678142 0.800864654,21.7624174 2.38812332,18.3657512 C3.97490114,14.9695658 6.14494002,12.1167316 8.89727827,9.81109535 C11.6505782,7.50545909 14.860197,5.77010117 18.5304622,4.60357905 C22.1997657,3.4389803 26.1181452,2.85571924 30.2841582,2.85571924 C32.5157449,2.85571924 34.7588717,2.97977641 37.0159429,3.22692908 C39.2385477,3.47166295 41.45797,3.7444823 43.673678,4.04532176 C44.6651737,4.19486355 45.6451292,4.34296281 46.6116212,4.49202376 C47.5790748,4.64108471 48.5575878,4.76514188 49.5495644,4.86371444 C49.7471903,4.86371444 49.8472054,4.96372953 49.8472054,5.16135549 C49.7504636,6.91631495 49.5767124,8.66618046 49.3264538,10.4058966 C49.0759906,12.1288486 48.8281965,13.8521876 48.5830724,15.5759073 C48.5330649,15.9235559 48.4830573,16.2582217 48.4340115,16.5799049 C48.3840039,16.9030305 48.3339964,17.2117309 48.2849505,17.5098528 C48.2849505,17.6593946 48.1974373,17.7459461 48.0243343,17.7704691 C47.8497887,17.7959537 47.7382334,17.7334443 47.6891876,17.5843833 C47.2924931,15.4523309 46.5741155,13.6174388 45.5326123,12.0797068 C44.4906282,10.5429365 43.2135124,9.26582079 41.7017459,8.24884046 C40.1885369,7.23282181 38.4897229,6.4889596 36.6057849,6.01677299 C34.7204044,5.5460289 32.7619359,5.30945476 30.7289369,5.30945476 C27.3072669,5.30945476 24.1197668,5.88069477 21.1702835,7.02125144 C18.2188767,8.16276978 15.6521434,9.76156865 13.4705643,11.8195714 C11.2885044,13.878055 9.56564833,16.357756 8.30103449,19.2581935 C7.03834401,22.1600735 6.4060371,25.3470927 6.4060371,28.8178086 C6.4060371,32.5871272 7.09941092,36.1443946 8.48904362,39.4920149 C9.87723379,42.8396353 11.7741545,45.7665191 14.1798059,48.2697813 C16.5844956,50.7754477 19.4358872,52.75892 22.7344617,54.2216407 C26.0311128,55.6843613 29.5898227,56.4152408 33.4091489,56.4152408 C35.0449726,56.4152408 36.7062808,56.229155 38.3925929,55.8569835 C40.0779433,55.4857737 41.5171027,54.6798829 42.7076669,53.4402728 L42.7076669,36.7026518 C42.7076669,35.5125685 42.3359762,34.7076394 41.592114,34.2854603 C40.8482518,33.8647237 40.0043745,33.5040924 39.0628863,33.2069322 C38.6592804,33.1056048 38.2617805,32.981346 37.8723221,32.8347607 C37.474666,32.6861806 37.0789332,32.4885546 36.6817579,32.2399594 C36.532697,32.140906 36.4831703,32.0293507 36.532697,31.9052936 C36.5817428,31.7821981 36.6817579,31.7192078 36.8298572,31.7192078 C39.805306,31.7192078 42.74373,31.7451733 45.6451292,31.7937383 C48.5465284,31.8437458 51.4849525,31.9427992 54.4604013,32.0913793 L54.5349318,32.6861806 C53.2448333,32.9342949 52.0917748,33.3434913 51.076237,33.9132888 L51.076237,33.9132888 Z M90.2417603,53.6633834 C89.584785,53.6114074 88.9276306,53.5617201 88.2703091,53.5143224 C87.8626254,53.463631 87.4533606,53.4265855 87.0432009,53.403248 C86.6096364,53.3776691 86.1753994,53.3651616 85.7410814,53.3657423 C84.5995631,53.3657423 83.4594872,53.4157499 82.3194114,53.5152841 C81.1778931,53.6152992 80.0373364,53.7138718 78.8972606,53.8124443 C78.7477188,53.8124443 78.6477037,53.7379138 78.5996195,53.5893337 C78.549612,53.4402728 78.5996195,53.3171773 78.7481996,53.2176431 L81.6495988,51.80493 C80.8134967,49.4942919 79.9330732,47.1999326 79.0088159,44.9231226 C78.0750968,42.625374 77.1947597,40.3062926 76.3685137,37.9677465 L64.8379282,37.9677465 C64.4734375,38.9204943 64.1139232,39.8751385 63.7594002,40.8316401 C63.2739744,42.1362524 62.8153155,43.4506684 62.3837119,44.7740617 C61.9624107,46.055868 61.5654845,47.3455577 61.1931477,48.6424337 C60.8454991,49.8580017 60.672396,50.7374612 60.672396,51.2832166 C60.672396,52.026598 60.9940792,52.5108057 61.6398497,52.7334354 C62.2836968,52.9570268 62.9044635,53.1185897 63.4992648,53.2176431 L63.4992648,53.8124443 C62.5568149,53.7138718 61.5898421,53.6263586 60.5983464,53.5518281 C58.6174698,53.4039518 56.6283253,53.4039518 54.6474487,53.5518281 C53.6549913,53.6263586 52.6634956,53.7138718 51.6719999,53.8124443 C51.5234198,53.8624519 51.4359066,53.7884022 51.4113837,53.5893337 C51.3858991,53.3917078 51.4484085,53.2671698 51.5974694,53.2176431 C54.3243231,52.8709561 56.2347074,51.4317968 57.3252565,48.9030499 L57.3252565,48.9770995 C58.7629734,45.3578036 60.1521253,41.7365843 61.4912696,38.1163266 C62.835535,34.4820994 64.1498803,30.8368749 65.434172,27.1810232 C66.3261335,24.7018031 67.1940529,22.2341232 68.0374493,19.7789451 C68.8900799,17.2974672 69.7827993,14.8299452 70.7152571,12.3773478 C70.764303,12.2287677 70.8643181,12.1542373 71.0124173,12.1542373 C71.1614783,12.1542373 71.2605317,12.2287677 71.3100584,12.3773478 C71.5553242,13.0648875 71.8158445,13.7468896 72.0914263,14.4228487 C72.3657721,15.0992353 72.6261233,15.7812143 72.8723133,16.4683496 C74.9244699,22.0732359 77.0449799,27.6528587 79.233369,33.2059705 C81.444412,38.8209412 83.9650044,44.3090326 86.7835463,49.6449888 C87.3783476,50.7869879 88.1342309,51.6044189 89.0521578,52.1001668 C89.969123,52.5954338 91.023609,52.8930749 92.2136924,52.9921283 L92.2136924,53.5869295 C91.5174335,53.688868 90.8610845,53.7133909 90.2417603,53.6633834 L90.2417603,53.6633834 Z M70.6402458,20.0400422 C69.8177241,22.6013137 69.0119763,25.1679418 68.2230543,27.7397614 C67.4195197,30.347858 66.5639313,32.939632 65.6568018,35.5135302 L75.2529609,35.5135302 L70.6402458,20.0400422 L70.6402458,20.0400422 Z M145.895829,53.737433 L139.8704,53.737433 C137.886447,53.737433 135.927979,53.688868 133.994033,53.5888529 C133.696392,53.5888529 133.596377,53.4647957 133.696392,53.2171622 C133.745438,53.1181088 133.782463,53.0190554 133.807467,52.920002 C133.833565,52.8172009 133.87081,52.717557 133.918541,52.6228418 L134.364762,51.2836975 C134.513823,50.8369955 134.588354,50.4162589 134.588354,50.0186028 C134.588354,47.1922149 134.450833,44.402371 134.178196,41.6505136 C133.903407,38.8820011 133.593399,36.1170974 133.248248,33.356474 C133.07223,31.8550365 132.8863,30.3547775 132.690471,28.8557951 C132.515926,27.5430971 132.379847,26.017867 132.280794,24.2810666 C130.410955,27.870959 128.600659,31.4915522 126.850648,35.1413586 C125.114809,38.7620971 123.37849,42.4314006 121.644093,46.1507117 C121.055884,47.37531 120.472938,48.6024295 119.895272,49.8320362 C119.318192,51.062247 118.735566,52.2898486 118.147412,53.5148033 C118.097405,53.6148184 118.022874,53.6638642 117.924302,53.6638642 C117.824286,53.6638642 117.725233,53.6148184 117.62666,53.5148033 C115.345066,50.3412476 113.373615,47.1051826 111.712788,43.8075697 C110.062583,40.5337915 108.487574,37.2226484 106.988998,33.8767448 C106.269829,32.3077845 105.56313,30.7331383 104.868967,29.1529553 C104.175634,27.5856172 103.444217,26.0354042 102.675367,24.5036963 C102.530915,25.7068484 102.381853,26.9094425 102.228184,28.111452 C102.079123,29.2774933 101.931024,30.4305519 101.781963,31.5701469 C101.38831,34.6146554 101.041102,37.6649892 100.740459,40.7200848 C100.440537,43.7855725 100.291456,46.8639484 100.293757,49.9440723 C100.293757,50.8365146 100.516868,51.4442986 100.96357,51.7664626 C101.410272,52.0900691 101.955066,52.3752083 102.599874,52.622361 C102.7975,52.7218952 103.070619,52.8329697 103.417786,52.9560651 C103.764473,53.0815648 103.987584,53.1671547 104.087599,53.2166814 C104.237141,53.3162156 104.285225,53.439792 104.237141,53.5883721 C104.187133,53.7369522 104.087599,53.8114826 103.9395,53.8114826 C103.244683,53.8114826 102.563331,53.8004233 101.893999,53.7744578 C101.211425,53.7490244 100.529333,53.7119943 99.8480171,53.6633834 C99.1543886,53.6140004 98.4599459,53.5768096 97.7650106,53.5518281 C97.0697134,53.527786 96.3753779,53.5152841 95.682004,53.5152841 L94.1937988,53.5152841 C93.7475776,53.5152841 93.2513489,53.5652917 92.7060744,53.6643451 C92.5570134,53.7143526 92.4569983,53.6393413 92.4084333,53.4412345 C92.3584258,53.2436085 92.4084333,53.1185897 92.5579751,53.0695438 C92.9541887,52.9704904 93.2513489,52.9204829 93.4504174,52.9204829 C93.9278544,52.8377938 94.3997971,52.7260306 94.8636113,52.585817 C95.259825,52.4622407 95.6319965,52.1280556 95.9791642,51.5818194 C96.0782176,51.4317968 96.2133342,50.7893922 96.3883606,49.647393 C96.5614636,48.5073171 96.7600513,47.0570984 96.9836427,45.295775 C97.2067533,43.536375 97.4543868,41.5394391 97.7270241,39.3078525 C98.0040043,37.0284958 98.2644671,34.7471624 98.5083919,32.4640317 C98.7560254,30.1338725 99.0036589,27.8407381 99.2522541,25.583186 C99.4998876,23.3270765 99.7229982,21.2565719 99.9215859,19.3716721 C100.119212,17.7353676 100.268754,16.284668 100.368288,15.0200542 C100.467341,13.7554403 100.565914,12.850977 100.665929,12.3047407 C100.665929,12.1556798 100.727477,12.0705708 100.852015,12.0441245 C100.975591,12.0200824 101.087146,12.0566264 101.187161,12.1556798 C101.781482,12.8009694 102.624397,14.0780852 103.715908,15.9865461 C104.806457,17.8964496 105.985001,20.1150535 107.249614,22.6442812 C108.582211,25.313153 109.896383,27.9911847 111.192036,30.6781854 C112.457199,33.3002291 113.709326,35.9285427 114.948372,38.5630286 C115.791287,40.2998291 116.485142,41.7875535 117.031378,43.0266827 C117.577134,44.2667736 118.072882,45.3082769 118.519584,46.1507117 C119.366996,44.4471718 120.172964,42.723328 120.936775,40.980701 C121.754687,39.1208051 122.560578,37.2738919 123.354448,35.4389997 C125.125271,31.3439141 126.96039,27.2769324 128.859124,23.2395633 C130.792589,19.1235578 132.850592,15.4542543 135.033132,12.2302103 C135.132186,12.1311569 135.230758,12.094132 135.330773,12.1181741 C135.429827,12.1441396 135.479834,12.2302103 135.479834,12.3787904 C135.578888,12.9735916 135.66592,13.804967 135.740451,14.8709932 C135.814981,15.9384619 135.926536,17.1650893 136.075116,18.5532795 C136.224177,20.3886525 136.409782,22.3971285 136.632893,24.5787076 C136.856003,26.7612484 137.091135,28.9933158 137.33973,31.2734675 C137.587364,33.5550617 137.834997,35.7741464 138.083592,37.9312025 C138.307178,39.907327 138.567519,41.8791196 138.864479,43.8455562 C139.136636,45.6309217 139.396771,47.131148 139.645847,48.3452735 C139.893481,49.5613223 140.141114,50.3172055 140.38971,50.6138849 C140.934984,51.4082355 141.455736,51.9164852 141.951964,52.1395958 C142.446751,52.3631872 143.042514,52.5247501 143.73733,52.6238035 C144.084017,52.7233377 144.444648,52.7853663 144.815858,52.8098892 C145.18803,52.8353739 145.571741,52.9464483 145.968917,53.1440743 L145.895829,53.737433 L145.895829,53.737433 Z M169.749908,49.9810971 C169.595895,51.0837728 169.446993,52.1871562 169.303206,53.2912119 C169.303206,53.4407536 169.203191,53.5148033 169.005565,53.5148033 L168.931996,53.5888529 C168.53434,53.737433 168.212657,53.8119635 167.965023,53.8119635 C166.823505,53.8119635 165.670927,53.801385 164.505847,53.7749387 C163.353116,53.7500771 162.200152,53.7375745 161.047153,53.737433 C160.055176,53.737433 159.087722,53.7263736 158.145753,53.7013699 C157.178993,53.6758156 156.211933,53.6633126 155.244835,53.6638642 C153.905691,53.6638642 152.553564,53.6758853 151.190377,53.7013699 C149.825748,53.7263736 148.475545,53.7638793 147.1364,53.8119635 L147.1364,53.2171622 C147.880263,53.2171622 148.486604,53.0565611 148.958791,52.7329546 C149.418213,52.4238926 149.78978,52.0011368 150.037319,51.5058464 C150.284952,51.0105794 150.446515,50.4523221 150.521046,49.8320362 C150.595095,49.2131929 150.63212,48.5804051 150.63212,47.9360771 L150.63212,16.9900629 C150.63212,15.9985672 150.396508,15.3542392 149.925283,15.0565982 C149.44519,14.7546624 148.933997,14.5052723 148.400533,14.3127359 L147.396055,13.9775892 C147.024364,13.8544937 146.639691,13.6679271 146.243477,13.4198128 C146.143462,13.3207594 146.106437,13.2092041 146.132403,13.0851469 C146.156445,12.9620514 146.243477,12.8990612 146.392538,12.8990612 L167.592852,12.8990612 C167.797221,12.7974088 168.008516,12.71032 168.225158,12.6384449 C168.448269,12.5639144 168.657916,12.4783246 168.856985,12.3778287 C169.105099,12.2792561 169.228675,12.3778287 169.228675,12.6754697 C169.092184,13.8851792 168.906102,15.0887773 168.670899,16.2832255 C168.447788,17.3987784 168.211695,18.527314 167.964061,19.6678707 C167.914054,19.8169316 167.802499,19.8789602 167.629395,19.8539564 C167.455331,19.8294335 167.368779,19.742882 167.368779,19.5933402 C167.268764,17.8579823 166.673963,16.7183873 165.583895,16.1711894 C164.491903,15.6259148 163.152759,15.3532775 161.566943,15.3532775 L155.690094,15.3532775 L155.690094,30.6031741 L164.3188,30.6031741 C164.566914,30.6031741 164.888597,30.5291244 165.286254,30.3795826 C165.681986,30.2305217 166.0782,30.0824224 166.476337,29.9333615 C166.994019,29.6471799 167.543329,29.4223887 168.113122,29.2635489 C168.360756,29.1649763 168.484813,29.2635489 168.484813,29.5607091 C168.434805,30.1555104 168.373739,30.8012809 168.298246,31.4946547 C168.230521,32.141739 168.143611,32.7866713 168.03763,33.4286003 C167.935417,34.0449077 167.860972,34.6654999 167.81452,35.2884962 C167.76706,35.9112347 167.692619,36.5316224 167.591409,37.1479113 C167.591409,37.2969723 167.5289,37.3969873 167.405804,37.4455524 C167.281266,37.4955599 167.169711,37.471037 167.071138,37.3710219 C166.822062,37.1233884 166.661942,36.8762357 166.587411,36.6271597 C166.50496,36.3531336 166.418076,36.0804606 166.326795,35.8092478 C166.22678,35.5120876 166.127727,35.2144466 166.029154,34.9168055 C165.929139,34.6191645 165.756036,34.347008 165.508402,34.0988937 C165.259326,33.8512602 164.801565,33.6656553 164.132233,33.5406364 C163.417776,33.4109014 162.698101,33.3117576 161.975177,33.2434762 C161.221027,33.1701551 160.463791,33.1330876 159.706085,33.1324017 L155.763182,33.1324017 L155.763182,48.4563479 C156.507045,49.5483396 157.559607,50.3787533 158.924236,50.9485508 C160.287903,51.5197908 161.614065,51.8039683 162.903683,51.8039683 C164.639521,51.8039683 166.114263,51.3457261 167.329831,50.4277991 C168.544437,49.5108339 169.349847,48.2091952 169.747503,46.5224023 L170.341824,46.6714633 C170.104009,47.7670445 169.90657,48.871002 169.749908,49.9810971 L169.749908,49.9810971 Z M215.109635,27.6556141 C215.080303,27.7412039 215.017313,27.777267 214.917298,27.7623609 C214.817764,27.7488974 214.768718,27.698409 214.768718,27.6128191 C214.768718,26.6737352 214.51291,26.0125777 214.000333,25.6283852 C213.488236,25.2446734 212.77659,25.0523367 211.866357,25.0523367 C211.467258,25.0523367 211.090759,25.0739746 210.734455,25.1167695 C210.379113,25.1590836 210.002133,25.2086103 209.603516,25.2658305 C209.318857,25.3235315 209.00631,25.3663264 208.664912,25.3946961 C208.323515,25.4235466 208.010006,25.437491 207.725828,25.437491 L207.725828,33.8017335 L213.486313,33.8017335 C213.685381,33.8017335 213.9133,33.7161436 214.169108,33.5459257 C214.424916,33.3752268 214.624465,33.2040472 214.766794,33.03431 C214.823053,32.9775707 214.887486,32.9631454 214.958169,32.9910343 C215.029334,33.0203656 215.065397,33.0766241 215.065397,33.1617331 C214.957511,34.6942999 214.758087,36.219045 214.468192,37.7278065 C214.43886,37.8133963 214.37587,37.8489786 214.276336,37.8345534 C214.176321,37.8210898 214.126794,37.7701206 214.126794,37.6850116 C214.154683,36.7459276 213.919551,36.0991954 213.422842,35.7433725 C212.92469,35.3880305 212.220256,35.2105998 211.309542,35.2105998 L207.724867,35.2105998 L207.724867,43.7455412 C207.724867,44.0859771 207.795551,44.4418 207.938361,44.812529 C208.080209,45.1822963 208.279758,45.5092687 208.536047,45.7939271 C208.792336,46.0785854 209.089977,46.3050619 209.431855,46.4767224 C209.773253,46.6469404 210.14302,46.7325302 210.541157,46.7325302 L210.541157,47.0739278 L210.242554,47.0739278 C209.929045,47.0739278 209.630443,47.0595026 209.346265,47.0316138 C209.061607,47.0032441 208.762523,46.9753553 208.450938,46.9455431 C208.152584,46.9189587 207.853772,46.8977982 207.554649,46.882072 C207.26999,46.8676467 206.984851,46.8604341 206.701155,46.8604341 C206.417458,46.8604341 206.131838,46.8748594 205.848622,46.903229 L204.995128,46.988338 C204.342509,47.044321 203.687828,47.0728761 203.032813,47.0739278 L202.776524,47.0739278 C202.690934,47.0739278 202.641408,47.0239203 202.626982,46.9239052 C202.612076,46.824371 202.648139,46.7608999 202.733729,46.7325302 C203.245345,46.6464595 203.644444,46.5406743 203.92814,46.4122896 C204.211837,46.2839048 204.41908,46.1136868 204.546984,45.9001931 C204.675368,45.6871802 204.746052,45.417428 204.760477,45.089013 C204.773941,44.7620406 204.781154,44.3422658 204.781154,43.8306501 L204.781154,25.9919015 C204.781154,25.3374759 204.652769,24.9321263 204.397442,24.7753719 C204.118927,24.6103001 203.817081,24.4882326 203.502114,24.413298 C203.326122,24.3444117 203.148306,24.2802762 202.968861,24.2209613 C202.736219,24.1416271 202.514178,24.0340784 202.307703,23.9007207 C202.222595,23.8439814 202.193263,23.7800294 202.222595,23.7088649 C202.250483,23.638662 202.307703,23.602118 202.392812,23.602118 C204.185871,23.687227 205.990951,23.7305027 207.81238,23.7305027 L210.842164,23.7305027 C210.984012,23.7305027 211.133073,23.7377154 211.290308,23.7521406 C211.446101,23.766085 211.610068,23.7732976 211.781248,23.7732976 C212.434231,23.8021482 213.110775,23.8021482 213.807515,23.7732976 C214.504736,23.744928 215.109154,23.5886544 215.620769,23.3035152 C215.677509,23.2462951 215.74098,23.2462951 215.813106,23.3035152 C215.883309,23.3607354 215.904947,23.4319 215.876577,23.517009 L215.109635,27.6556141 L215.109635,27.6556141 Z" id="Shape"></path>
                <path d="M447.937063,6.65436917 C447.884652,8.40174814 447.650001,9.9774666 447.234073,11.3848904 C447.181661,11.541164 447.076838,11.6190604 446.921045,11.6190604 C446.764771,11.6190604 446.659948,11.541164 446.608017,11.3848904 C446.34692,10.0822901 445.943493,9.02732328 445.395815,8.21806659 C444.864962,7.42580396 444.154988,6.769696 443.323387,6.30287384 C442.489607,5.83357228 441.550523,5.50900409 440.508539,5.32532254 C439.423546,5.14000376 438.32461,5.04846593 437.223909,5.05172357 L238.849754,5.05172357 L238.849754,50.716785 C238.849754,52.8021958 239.514758,54.5750594 240.843324,56.0344141 C242.172852,57.4947306 243.826947,58.3799602 245.808015,58.6934691 C245.964289,58.7444383 246.029683,58.8627254 246.003718,59.0440027 C245.976791,59.2267226 245.885912,59.3171208 245.730119,59.3171208 C243.894473,59.1605019 242.056665,59.0303405 240.217268,58.9266773 C238.366027,58.8228155 236.502766,58.7708846 234.627002,58.7708846 C233.270547,58.7708846 231.92948,58.8093519 230.599952,58.8877291 C229.270905,58.9661063 227.928395,59.0579471 226.572902,59.1613281 C226.416629,59.1613281 226.324788,59.0709299 226.299303,58.8877291 C226.271895,58.705971 226.338732,58.5881647 226.495006,58.5367147 C227.746637,58.2760984 228.723227,57.9890359 229.42766,57.6764887 C230.131131,57.3634607 230.651402,56.9475326 230.991357,56.4243768 C231.330351,55.904106 231.539517,55.2395827 231.617413,54.4308068 C231.69579,53.6225118 231.735219,52.5925488 231.735219,51.3418793 L231.735219,5.1291391 L218.833273,5.1291391 C217.16331,5.1291391 215.691453,5.71528521 214.414818,6.88853911 C213.137222,8.06131217 212.186117,9.37833776 211.561022,10.8372117 C211.456199,10.9934852 211.337912,11.0593606 211.209527,11.0324334 C211.079219,11.006468 211.013824,10.915108 211.013824,10.7588345 C210.909001,10.2380828 210.857551,9.76926212 210.857551,9.35141062 C210.857551,8.30942652 210.987378,7.29292703 211.247994,6.30191216 C211.655863,4.76691403 212.099318,3.24159344 212.578003,1.72718362 C212.734276,1.23287828 212.864104,0.750113152 212.968927,0.280330748 C213.072789,-0.0317355564 213.229062,-0.0836664669 213.438229,0.124057175 C214.533105,0.802044062 215.600574,1.23287828 216.644001,1.41511731 C217.686946,1.59783718 218.884723,1.68823543 220.240697,1.68823543 L443.090178,1.68823543 C443.507068,1.68823543 443.961945,1.62332179 444.458654,1.49301368 C444.95344,1.36270556 445.409759,1.24586101 445.827611,1.14151835 C446.126274,1.08349712 446.426058,1.03139572 446.726785,0.985244774 C447.064336,0.934275547 447.417273,0.880902111 447.781752,0.828971201 C447.938025,0.828971201 448.016402,0.934275547 448.016402,1.14151835 L448.016402,1.76661264 C448.013329,3.39616037 447.98688,5.02558018 447.937063,6.65436917 L447.937063,6.65436917 Z" id="Path"></path>
                <path d="M286.763713,53.9610244 C284.162763,53.8123677 281.558114,53.7376468 278.952919,53.7369522 C278.010469,53.7369522 277.080521,53.7494541 276.163556,53.7744578 C275.245148,53.8009041 274.290677,53.8369673 273.299182,53.8855323 C273.150601,53.8855323 273.063569,53.7999424 273.039046,53.6253969 C273.013081,53.451813 273.076552,53.3407386 273.226094,53.290731 C274.761421,52.844029 275.75484,52.2492277 276.201062,51.5053655 C276.647283,50.7615033 276.871355,49.5964237 276.871355,48.0091651 L276.871355,32.5371196 L254.034256,32.5371196 L254.034256,48.158226 C254.034256,51.2827358 255.646038,52.9940516 258.869601,53.2912119 C259.019143,53.2912119 259.093192,53.3912269 259.093192,53.5888529 C259.093192,53.7879214 259.019143,53.8860131 258.869601,53.8860131 L256.563484,53.8860131 C255.868668,53.8860131 255.125286,53.9119786 254.331416,53.9600627 C253.785661,53.9600627 253.153354,53.9725646 252.434977,53.9970876 C251.715637,54.023053 251.082849,54.0341124 250.539017,54.0341124 L248.679122,54.0341124 C248.033832,54.0341124 247.388542,54.0095894 246.745657,53.9600627 C246.547069,53.9600627 246.310495,53.9490034 246.038819,53.9235188 C245.803742,53.9002418 245.567722,53.8877269 245.331501,53.8860131 C245.181959,53.8860131 245.095889,53.7999424 245.071366,53.6258777 C245.0454,53.4522938 245.108391,53.3412194 245.257452,53.2912119 C246.049398,53.1421509 246.694688,52.9820306 247.190916,52.8079659 C247.686183,52.6348628 248.058836,52.3872293 248.306469,52.0636228 C248.554584,51.7414588 248.715665,51.3322625 248.790196,50.8360338 C248.864246,50.3412476 248.90079,49.695958 248.90079,48.9025691 L248.90079,17.2131735 C248.90079,16.1226243 248.46707,15.3047125 247.599151,14.7589571 C246.731232,14.2141634 245.802245,13.9165223 244.809788,13.8665148 L244.809788,13.2717135 C246.892314,13.4207745 248.949835,13.4953049 250.984277,13.4953049 C251.827193,13.4953049 252.669627,13.4837647 253.513985,13.4577993 C254.35642,13.4337572 255.199336,13.4207745 256.042732,13.4207745 L257.605468,13.4207745 C257.754048,13.4207745 257.828579,13.5207896 257.828579,13.7184155 C257.828579,13.917484 257.754048,14.0160566 257.605468,14.0160566 C256.713026,14.0160566 255.906173,14.2886939 255.187796,14.8344493 C254.467976,15.3806855 254.109268,16.1485898 254.109268,17.1405664 L254.109268,30.083865 L276.872798,30.083865 L276.872798,17.4377266 C276.872798,16.2466815 276.562174,15.4912791 275.941888,15.1681534 C275.321121,14.8464703 274.5662,14.5613311 273.673276,14.3132168 C273.486203,14.2671323 273.300079,14.2172748 273.115019,14.163675 C272.929784,14.1114384 272.743841,14.0617467 272.557243,14.0146141 C272.408182,13.9650873 272.346153,13.8544937 272.371638,13.6799482 C272.39568,13.5068451 272.481751,13.4198128 272.632254,13.4198128 C275.938106,13.629716 279.251692,13.6916462 282.563079,13.6054177 C283.578617,13.5808948 284.582614,13.54387 285.576033,13.4943433 C285.724614,13.4943433 285.810684,13.5813756 285.83665,13.7544787 C285.861173,13.9285434 285.799625,14.0405795 285.650083,14.0891445 C284.558572,14.2877322 283.690653,14.5728713 283.046806,14.9440812 C282.401516,15.3162527 282.079352,16.1226243 282.079352,17.3617536 L282.079352,47.8610658 C282.079352,49.5478587 282.451043,50.8119917 283.194424,51.6549073 C283.939248,52.4992655 285.153374,53.0681013 286.840166,53.3662232 L286.763713,53.9610244 L286.763713,53.9610244 Z M326.659635,54.5188009 C325.771308,54.7384039 324.859866,54.8507602 323.944802,54.8534667 C322.457078,54.8534667 321.117933,54.5813103 319.92785,54.0350741 C318.737767,53.4902803 317.671259,52.7964257 316.729771,51.9520675 C315.787321,51.1096328 314.907381,50.1421791 314.088988,49.0511492 C313.271491,47.9615123 312.490178,46.8451915 311.746327,45.7040097 C311.045033,44.654081 310.313528,43.6246494 309.552727,42.6170055 C308.781938,41.6014677 307.939984,40.6835408 307.022538,39.8646673 C306.105092,39.0457938 305.113115,38.3899256 304.047089,37.893216 C302.980582,37.397949 301.778478,37.148873 300.439333,37.148873 L299.248769,37.148873 C298.90064,37.148873 298.52943,37.1988805 298.133216,37.2979339 L298.133216,47.8610658 C298.133216,49.2997444 298.566935,50.5273334 299.434855,51.5428712 C300.302293,52.5598515 301.454871,53.1421509 302.89355,53.2912119 L302.89355,53.8860131 C301.766184,53.7885834 300.637918,53.7018677 299.508904,53.6258777 C298.382559,53.5512271 297.254037,53.5141817 296.125221,53.5148033 C294.983222,53.5148033 293.87969,53.5648108 292.814145,53.6638642 C291.746676,53.7638793 290.643625,53.8869748 289.503549,54.0350741 C289.354007,54.0850816 289.242933,54.0240147 289.168883,53.8489883 C289.095314,53.6758853 289.132339,53.5393262 289.280438,53.439792 C290.321461,52.9445249 291.188899,52.2011436 291.884197,51.2077245 C292.57757,50.2162288 292.925219,49.1502026 292.925219,48.0086842 L292.925219,18.3292072 C292.925219,17.1886505 292.515542,16.1846529 291.69763,15.3162527 C290.879718,14.4488142 289.899763,13.8650723 288.759687,13.5674312 C288.610626,13.5183854 288.548116,13.4073109 288.57312,13.2332462 C288.598124,13.0601431 288.684675,12.9726299 288.833256,12.9726299 L303.488351,12.9726299 C305.025121,12.9726299 306.538811,13.1587157 308.026535,13.5304064 C309.513779,13.9020971 310.826958,14.485839 311.968476,15.278747 C313.108552,16.072136 314.025517,17.1131584 314.721295,18.402776 C315.414669,19.6928744 315.762318,21.2296447 315.762318,23.0150102 C315.762318,25.3951769 315.105007,27.652729 313.790866,29.7838197 C312.476245,31.9168338 311.001023,33.7522068 309.364718,35.2889771 C309.910473,35.8832975 310.504794,36.6406233 311.150564,37.5575885 C311.829185,38.5234754 312.52329,39.4783902 313.232609,40.4219629 C314.363654,41.9635156 315.516994,43.4885854 316.692266,44.9966914 C317.906391,46.5589463 319.183988,47.9721403 320.523132,49.2367541 C321.861795,50.5018488 323.249505,51.4938253 324.688664,52.2122029 C326.126381,52.9315422 327.590063,53.1921584 329.077307,52.9935708 L329.300898,53.5883721 C328.454262,53.9871705 327.569296,54.2989144 326.659635,54.5188009 L326.659635,54.5188009 Z M309.922014,21.8994573 C309.551285,20.6103205 308.992546,19.4452409 308.249165,18.4032568 C307.514395,17.3706119 306.577934,16.4976178 305.496346,15.8370043 C304.404835,15.1671918 303.140702,14.8330067 301.702024,14.8330067 C301.107222,14.8330067 300.51194,14.8700315 299.916658,14.9440812 C299.32488,15.0178262 298.747714,15.1809243 298.204862,15.427808 L298.204862,33.9503136 C299.047777,34.0993745 299.86617,34.1989088 300.659559,34.2474738 C301.476651,34.2978988 302.295129,34.3225943 303.113775,34.3215568 C305.890636,34.3215568 307.81208,33.5666019 308.878587,32.0524311 C309.944613,30.5401838 310.47789,28.4446754 310.47789,25.7663868 C310.480271,24.4786925 310.295147,23.1895557 309.922014,21.8994573 L309.922014,21.8994573 Z M364.441776,42.6910552 C363.275735,45.1462332 361.726944,47.2657837 359.792036,49.0511492 C357.858091,50.8369955 355.614483,52.2261473 353.060732,53.2171622 C350.50602,54.2096196 347.816672,54.7053675 344.989803,54.7053675 C342.65724,54.7053675 340.240049,54.1350891 337.736786,52.9940516 C335.234612,51.8551663 332.915521,50.3508603 330.85546,48.5303975 C328.772453,46.6969479 327.049116,44.6134605 325.684968,42.2823397 C324.32082,39.9512188 323.639467,37.5960558 323.639467,35.2154083 C323.639467,31.5961123 323.974133,28.4831427 324.643946,25.8793846 C325.313758,23.2756264 326.391806,21.0700053 327.87953,19.2581935 C329.368697,17.4483051 331.326204,15.9610615 333.756859,14.7955011 C336.186072,13.6309023 339.16152,12.6754697 342.683206,11.9311267 L343.650659,11.8565962 C346.824215,11.6089627 349.77466,12.0681666 352.502475,13.2327653 C355.229329,14.3983258 357.609496,16.0351111 359.644418,18.1421598 C361.677417,20.2506509 363.276697,22.7418921 364.442738,25.6178067 C365.607337,28.4942021 366.190598,31.5191776 366.190598,34.6932141 C366.190117,37.5705712 365.605894,40.2358771 364.441776,42.6910552 L364.441776,42.6910552 Z M344.249788,14.315621 C343.630389,14.3250962 343.011871,14.3660205 342.396624,14.4382356 L342.396143,51.9929391 C342.995272,52.1222855 343.612673,52.2122029 344.249307,52.2655764 L344.249788,14.315621 L344.249788,14.315621 Z M348.681707,52.0698738 C350.005945,51.835223 351.230649,51.437086 352.354857,50.8740203 C354.288321,49.9065667 355.911162,48.6183916 357.226746,47.0051675 C358.539924,45.3943476 359.532863,43.5224306 360.202675,41.3894165 C360.871526,39.2573641 361.205711,37.0007737 361.205711,34.6201262 C361.205711,32.1909136 360.846041,29.7612201 360.128145,27.3300842 C359.408805,24.9008716 358.342298,22.7183308 356.929585,20.7843852 C355.516872,18.8504397 353.77911,17.2881848 351.722069,16.0976206 C350.767599,15.5463021 349.745829,15.1207531 348.682187,14.8315642 L348.682187,52.0698738 L348.681707,52.0698738 Z M347.391608,14.5440208 C346.77866,14.4372478 346.159804,14.3677189 345.538444,14.3358163 L345.538444,52.3237582 L345.658654,52.3237582 C346.252494,52.3237582 346.830947,52.2968311 347.391608,52.2439385 L347.391608,14.5440208 Z M341.117104,14.6401892 C339.965007,14.8700315 338.88696,15.2186418 337.884405,15.6879434 C335.925455,16.6063512 334.276649,17.870965 332.937985,19.4827466 C331.598841,21.095009 330.569359,22.9544241 329.850501,25.0614727 C329.131161,27.1699639 328.772453,29.4135715 328.772453,31.7937383 C328.772453,34.2739201 329.144144,36.7290981 329.888006,39.1578299 C330.631868,41.5880042 331.734919,43.7820851 333.198602,45.7405536 C334.660842,47.7004647 336.434186,49.2867616 338.517192,50.5018488 C339.338857,50.981045 340.211151,51.3676021 341.118066,51.6544265 L341.117104,14.6401892 L341.117104,14.6401892 Z M410.317927,13.8285283 C410.292923,13.8040054 410.230895,13.8174689 410.132322,13.8660339 C409.389946,14.0807287 408.657676,14.3289371 407.93776,14.6098962 C407.168414,14.9075372 406.785664,15.4282888 406.785664,16.172151 L406.859713,34.0998554 L406.859713,37.1498347 C406.860286,39.9897063 406.810431,42.8293643 406.710171,45.6674657 C406.6093,48.4858343 406.435819,51.3011356 406.189901,54.1105662 C406.189901,54.2105813 406.12691,54.296652 406.003334,54.3707016 C405.879277,54.4447512 405.768202,54.433211 405.669149,54.3336768 C403.288501,52.300197 400.909296,50.106116 398.527687,47.7504722 C396.14023,45.388719 393.79653,42.9831396 391.497781,40.5349607 C389.196383,38.0854714 386.927413,35.6057147 384.691465,33.0963386 C382.533405,30.6762285 380.400755,28.2335786 378.293866,25.768791 C377.650669,25.0831424 377.030519,24.3762326 376.434451,23.6492405 C375.838168,22.9221327 375.21786,22.2150644 374.574555,21.5292091 C374.429041,22.8135771 374.354557,24.1050001 374.351444,25.3975811 C374.351444,27.2824808 374.375967,29.1668997 374.425975,31.0508377 C374.47502,32.9357375 374.54907,34.8201563 374.649085,36.7040944 C374.848264,40.4946625 374.947513,44.2898215 374.946726,48.0856189 C374.946726,48.9294962 375.021257,49.6103681 375.169837,50.1311198 C375.319379,50.6518714 375.504503,51.0615486 375.727613,51.3591896 C375.950724,51.6563499 376.222399,51.8679202 376.546006,51.9910157 C376.867689,52.1155537 377.201874,52.2025861 377.550004,52.2511511 C377.946698,52.3511662 378.342431,52.4622407 378.741049,52.585817 C379.136781,52.710355 379.607525,52.9704904 380.153762,53.366704 C380.252815,53.4662383 380.288878,53.5773127 380.264836,53.7018507 C380.239351,53.8259079 380.153762,53.8874556 380.003739,53.8874556 C379.508472,53.8379289 379.024264,53.7893639 378.55352,53.7379138 C378.081814,53.6893488 377.598569,53.6393413 377.101859,53.5893337 C376.398208,53.4897688 375.691246,53.4151914 374.982308,53.3657423 C374.276688,53.3167838 373.569594,53.2920861 372.862277,53.2916927 C371.94161,53.2940715 371.022069,53.3562309 370.109458,53.4777785 C369.167008,53.6027973 368.224558,53.7379138 367.282589,53.8874556 C367.134009,53.9374632 367.022935,53.8874556 366.948885,53.7379138 C366.874355,53.5893337 366.885895,53.4662383 366.985429,53.366704 C367.381643,53.0200171 367.741312,52.746899 368.064438,52.5487922 C368.366774,52.3617437 368.677045,52.1878376 368.994386,52.0275597 C369.588706,51.7303995 370.12196,51.3207223 370.593666,50.8004515 C371.06441,50.2796999 371.300503,49.4492862 371.300503,48.3077678 L371.300503,13.4948241 L371.895304,12.3037791 C371.944831,12.2047257 372.018881,12.1311569 372.118896,12.0806685 C372.217468,12.0316226 372.291518,12.0561633 372.342006,12.1547181 C377.621423,17.6267639 382.853815,23.1439849 388.038605,28.7057725 C393.223191,34.2743481 398.355918,39.8909827 403.43612,45.5549487 L403.43612,45.3318381 C403.43612,43.0512056 403.423618,40.7936536 403.399095,38.5625478 C403.37361,36.3309612 403.336586,34.0503287 403.28754,31.7192078 C403.237532,29.5871554 403.187525,27.3190248 403.13896,24.9128926 C403.088952,22.508203 403.06491,20.2391107 403.06491,18.1065775 C403.06491,17.2641427 402.976916,16.5818282 402.803813,16.0610766 C402.630229,15.540325 402.394617,15.1436305 402.096976,14.8700315 C401.799815,14.598356 401.476209,14.412751 401.130003,14.3127359 C400.78817,14.2152216 400.440236,14.1405266 400.0885,14.0891445 C399.726019,14.0457761 399.366027,13.9836643 399.009971,13.9030588 C398.684345,13.8274591 398.387374,13.6596934 398.154554,13.4198128 C398.05502,13.3207594 398.043479,13.1967022 398.11801,13.0476413 C398.19254,12.8990612 398.278611,12.8504961 398.378626,12.8990612 C399.518702,13.0476413 400.583767,13.1221717 401.576224,13.1221717 L404.700734,13.1221717 C405.345543,13.1221717 406.002372,13.1111124 406.672666,13.0851469 C407.354675,13.0614112 408.037463,13.0737701 408.718167,13.1221717 C408.966762,13.1221717 409.238918,13.1351545 409.536078,13.1596774 C409.808227,13.1836265 410.081272,13.1959793 410.354471,13.1967022 L410.504013,13.7919843 C410.40496,13.8410302 410.342931,13.8540129 410.317927,13.8285283 L410.317927,13.8285283 Z M438.482753,49.9810971 C438.328905,51.0837743 438.180163,52.1871576 438.036532,53.2912119 C438.036532,53.4407536 437.936036,53.5148033 437.73889,53.5148033 L437.66436,53.5888529 C437.267185,53.737433 436.945021,53.8119635 436.697387,53.8119635 C435.55635,53.8119635 434.403291,53.801385 433.238212,53.7749387 C432.08548,53.7500771 430.932516,53.7375745 429.779517,53.737433 C428.78754,53.737433 427.820087,53.7263736 426.879079,53.7013699 C425.912319,53.6758125 424.945258,53.6633095 423.978161,53.6638642 C422.639017,53.6638642 421.28689,53.6758853 419.923222,53.7013699 C418.558593,53.7263736 417.20839,53.7638793 415.869245,53.8119635 L415.869245,53.2171622 C416.612627,53.2171622 417.21993,53.0565611 417.691636,52.7329546 C418.150925,52.4238793 418.522333,52.0011163 418.769683,51.5058464 C419.017797,51.0105794 419.17936,50.4523221 419.25341,49.8320362 C419.32794,49.2131929 419.364484,48.5804051 419.364484,47.9360771 L419.364484,16.9900629 C419.364484,15.9985672 419.129353,15.3542392 418.657647,15.0565982 C418.177437,14.7545694 417.666074,14.5051753 417.132417,14.3127359 L416.128419,13.9775892 C415.757209,13.8544937 415.371574,13.6679271 414.976322,13.4198128 C414.876307,13.3207594 414.838801,13.2092041 414.864767,13.0851469 C414.88929,12.9620514 414.976322,12.8990612 415.124902,12.8990612 L436.325697,12.8990612 C436.522842,12.8000078 436.735855,12.7129754 436.957523,12.6384449 C437.174365,12.5671099 437.385699,12.4800053 437.58983,12.3778287 C437.837944,12.2792561 437.96152,12.3778287 437.96152,12.6754697 C437.824171,13.8850924 437.637933,15.0886621 437.403263,16.2832255 C437.180152,17.3987784 436.944059,18.527314 436.696426,19.6678707 C436.646418,19.8169316 436.534863,19.8789602 436.36176,19.8539564 C436.187695,19.8294335 436.101143,19.742882 436.101143,19.5933402 C436.001609,17.8579823 435.406327,16.7183873 434.316259,16.1711894 C433.224267,15.6259148 431.885123,15.3532775 430.299307,15.3532775 L424.422459,15.3532775 L424.422459,30.6031741 L433.050683,30.6031741 C433.298317,30.6031741 433.621442,30.5291244 434.018137,30.3795826 L435.208701,29.9333615 C435.726217,29.6471866 436.275368,29.4223948 436.845006,29.2635489 C437.092639,29.1649763 437.216215,29.2635489 437.216215,29.5607091 C437.166208,30.1555104 437.10466,30.8012809 437.030611,31.4946547 C436.962175,32.1416537 436.875267,32.7865654 436.769994,33.4286003 C436.667474,34.044848 436.593186,34.6654615 436.547365,35.2884962 C436.499356,35.9112261 436.424596,36.5316039 436.323292,37.1479113 C436.323292,37.2969723 436.260783,37.3969873 436.137207,37.4455524 C436.013149,37.4955599 435.901113,37.471037 435.80206,37.3710219 C435.553945,37.1233884 435.393344,36.8762357 435.319295,36.6271597 C435.235966,36.3534061 435.149086,36.0807458 435.058678,35.8092478 C434.958183,35.5120876 434.860091,35.2144466 434.761037,34.9168055 C434.661022,34.6191645 434.4884,34.347008 434.240286,34.0988937 C433.99121,33.8512602 433.533929,33.6656553 432.864117,33.5406364 C432.149977,33.4109314 431.430623,33.3117877 430.708022,33.2434762 C429.95371,33.170167 429.196315,33.1330995 428.438449,33.1324017 L424.495066,33.1324017 L424.495066,48.4563479 C425.239409,49.5483396 426.292452,50.3787533 427.6566,50.9485508 C429.020268,51.5197908 430.346429,51.8039683 431.635566,51.8039683 C433.370924,51.8039683 434.847108,51.3457261 436.061714,50.4277991 C437.276321,49.5108339 438.081731,48.2091952 438.479387,46.5224023 L439.074188,46.6714633 C438.836526,47.7670489 438.639247,48.8710067 438.482753,49.9810971 L438.482753,49.9810971 Z M465.921507,47.7865353 C465.004542,49.2252139 463.839462,50.4523221 462.425787,51.4693024 C461.012594,52.4858019 459.450339,53.2806333 457.739023,53.8489883 C456.027226,54.4202283 454.402943,54.7044058 452.866653,54.7044058 C452.12231,54.7044058 451.341423,54.6178543 450.523992,54.4437896 C449.705119,54.2706865 448.961256,53.986509 448.291444,53.5888529 C447.62115,53.1926393 447.075395,52.6843895 446.654658,52.0636228 C446.233441,51.4438178 446.022832,50.6634116 446.022832,49.7204809 C446.022832,49.1251988 446.085342,48.5294359 446.208918,47.9351154 C446.332975,47.3403142 446.44405,46.7705167 446.544065,46.2233188 L446.915275,44.4384341 C446.915275,44.2893732 447.014328,44.2148427 447.212916,44.2148427 C447.410542,44.2148427 447.511038,44.2893732 447.511038,44.4384341 L447.511038,45.553987 C447.511038,46.5954903 447.733667,47.5138981 448.179889,48.3063253 C448.616594,49.0897263 449.197188,49.783698 449.891204,50.3518261 C450.585059,50.9230662 451.39095,51.3442835 452.308396,51.6174017 C453.225361,51.8895581 454.15579,52.0261172 455.098721,52.0261172 C455.991163,52.0261172 456.908609,51.8775371 457.85154,51.5803769 C458.773667,51.2923195 459.641188,50.8522212 460.418273,50.2782574 C461.180356,49.7147381 461.824503,49.0072058 462.314232,48.1957317 C462.808538,47.377339 463.058094,46.4728756 463.058094,45.4804182 C463.058094,44.5389301 462.834984,43.6089821 462.388282,42.6910552 C461.942061,41.7740899 461.346779,40.844142 460.602916,39.9016921 C459.815075,38.9112599 458.970418,37.9673836 458.073208,37.0748234 C457.118018,36.1206813 456.151133,35.1783205 455.17277,34.2479546 C454.124906,33.2502538 453.083382,32.2459154 452.048261,31.2350001 C451.006757,30.2189815 450.088349,29.1779591 449.295441,28.1104904 C448.502053,27.044945 447.857244,25.9659361 447.361496,24.8749061 C446.865748,23.784357 446.618114,22.669285 446.618114,21.5277666 C446.618114,19.8428971 447.088859,18.3921975 448.031308,17.1756678 C448.972316,15.9615424 450.138838,14.9695658 451.527509,14.200219 C452.914737,13.4323147 454.427946,12.8610747 456.065213,12.489384 C457.701517,12.1172125 459.214245,11.9311267 460.603397,11.9311267 C462.586389,11.9311267 464.39772,12.1797219 466.033543,12.6749889 C466.183085,12.775004 466.257615,12.8735765 466.257615,12.9721491 C466.048836,15.4862748 465.751169,17.9922265 465.365173,20.4853017 C465.315166,20.6338818 465.215151,20.7088931 465.067532,20.7088931 C464.91799,20.7088931 464.818456,20.6338818 464.769891,20.4853017 C464.372716,18.7499437 463.616833,17.2622193 462.500799,16.0221284 C461.385727,14.7829992 459.908581,14.1622325 458.07465,14.1622325 C456.189751,14.1622325 454.615956,14.7700165 453.351823,15.9846228 C452.087209,17.2006716 451.454902,18.7494629 451.454902,20.6334009 C451.454902,21.6263392 451.66551,22.5433044 452.087209,23.38622 C452.507464,24.2305782 453.054181,25.04849 453.722552,25.8409172 C454.393326,26.634787 455.174213,27.415674 456.066655,28.1840591 C456.979137,28.9712661 457.896763,29.7524905 458.819474,30.5276819 C459.871447,31.3807301 460.900804,32.2612955 461.906478,33.1684649 C462.893553,34.0553414 463.801897,35.0261077 464.621311,36.0698641 C465.399826,37.0625216 466.049633,38.1496806 466.555257,39.3054483 C467.049562,40.4469667 467.299119,41.685615 467.299119,43.0247594 C467.298157,44.7620406 466.838953,46.3488185 465.921507,47.7865353 L465.921507,47.7865353 Z M200.695922,40.8220232 C200.033803,42.2164643 199.153382,43.4214538 198.053216,44.4369916 C196.954492,45.4515677 195.678819,46.2401482 194.227158,46.8041756 C192.774535,47.368203 191.2469,47.6504571 189.639446,47.6504571 C188.314727,47.6504571 186.940482,47.3263698 185.518152,46.6781951 C184.095947,46.0309881 182.777826,45.1760081 181.606985,44.1412739 C180.423152,43.0992898 179.443197,41.9149766 178.669042,40.5902575 C177.893925,39.2655384 177.506366,37.9263941 177.506366,36.5737862 C177.506366,34.5162643 177.696779,32.7467666 178.077606,31.2667357 C178.458433,29.7871856 179.071025,28.5331503 179.916345,27.5046297 C180.762627,26.4756284 181.875294,25.6303085 183.256753,24.9681894 C184.63725,24.3060703 186.32837,23.7632 188.330114,23.3400592 L188.880197,23.2977451 C190.683354,23.1573393 192.361011,23.4179556 193.911725,24.0795939 C195.43871,24.7266717 196.819003,25.6759812 197.969549,26.8703995 C199.125012,28.069138 200.033803,29.485217 200.696403,31.1195981 C201.358041,32.7539793 201.689822,34.4739503 201.689822,36.2775877 C201.689822,37.9119689 201.358041,39.4271013 200.695922,40.8220232 L200.695922,40.8220232 Z M189.219672,24.6945905 C188.858559,24.7008414 188.508026,24.7244027 188.167109,24.7647934 L188.167109,46.1093593 C188.507545,46.1819664 188.858559,46.2338973 189.219191,46.2641903 L189.219672,24.6945905 L189.219672,24.6945905 Z M191.738321,46.152635 C192.463519,46.0285778 193.166818,45.7997058 193.826136,45.4732056 C194.92534,44.922161 195.848075,44.1908006 196.595303,43.2743162 C197.342051,42.3587935 197.906559,41.2946907 198.287386,40.0824886 C198.667731,38.8702865 198.858145,37.5878815 198.858145,36.234312 C198.858145,34.8538153 198.653787,33.4728377 198.245071,32.0918602 C197.836356,30.7108826 197.230495,29.4703109 196.42749,28.3711066 C195.638879,27.2852586 194.63048,26.3776176 193.467909,25.7072432 C192.924894,25.3944024 192.343927,25.1526425 191.739282,24.9879039 L191.739282,46.152635 L191.738321,46.152635 Z M191.005999,24.8244177 C190.657794,24.7641948 190.306322,24.7246963 189.953436,24.7061307 L189.953436,46.2968876 L190.021235,46.2968876 C190.359267,46.2968876 190.688162,46.2819815 191.00696,46.2512076 L191.005999,24.8244177 L191.005999,24.8244177 Z M187.440076,24.8797145 C186.806021,25.0032753 186.189261,25.2031574 185.603261,25.4749967 C184.489631,25.9971908 183.552951,26.7160492 182.791779,27.6310911 C182.030606,28.5470947 181.444941,29.6044657 181.037187,30.8017617 C180.627991,31.9995385 180.424114,33.2752117 180.424114,34.6283005 C180.424114,36.0381285 180.635684,37.4325696 181.058825,38.8130663 C181.481004,40.1945247 182.108503,41.4418283 182.939878,42.5544961 C183.753311,43.6525069 184.781912,44.5732897 185.96293,45.2606736 C186.429838,45.5333321 186.925578,45.7533026 187.441038,45.9165417 L187.440076,24.8797145 Z" id="Shape"></path>
            </g>
        </g>
    </g>
</svg>