<?xml version="1.0" encoding="UTF-8"?>
<svg width="267px" height="80px" viewBox="0 0 267 80" version="1.1" xmlns="http://www.w3.org/2000/svg" xmlns:xlink="http://www.w3.org/1999/xlink">
    <title>harry-potter</title>
    <g id="Page-2" stroke="none" stroke-width="1" fill="none" fill-rule="evenodd">
        <g id="Desktop-HD" transform="translate(-860.000000, -250.000000)" fill="#0C0E0F" fill-rule="nonzero">
            <g id="harry-potter" transform="translate(860.000000, 250.000000)">
                <path d="M187.381465,33.8785793 C186.361481,31.6670965 181.600039,27.5871613 179.388556,26.9071721 C177.858581,26.5671775 167.827222,31.1586224 166.635723,32.3486036 C165.44726,33.3685874 165.275745,35.0685604 163.917284,35.9200647 C163.917284,34.9000809 162.557306,34.3885712 162.725785,33.0285928 C162.894265,31.4986171 163.067298,29.9671235 163.404256,28.2671505 C163.575772,26.7371748 163.575772,25.207199 163.745769,23.5057082 C163.917284,22.1457298 164.255761,20.4442389 163.917284,18.9142632 C163.06578,13.642829 155.411348,1.39846972 148.952968,4.9699309 C145.039994,4.9699309 147.251477,0.548483205 141.980043,0.380003735 C140.960059,0.380003735 139.940075,0.550001038 139.090089,0.550001038 C137.560113,0.550001038 136.200135,0.380003735 134.667123,0.210006433 C133.818655,0.550001038 132.96715,1.05999294 132.117164,1.39998755 L132.117164,1.05999294 C131.09718,1.05999294 131.607172,3.61147031 131.777169,4.28994169 C132.96715,10.5828775 132.96715,17.2142902 133.647139,24.0157001 C133.987134,26.7371748 135.688625,30.6486305 134.665605,33.3685874 C133.985616,33.3685874 132.627156,32.517083 132.115646,33.0285928 C130.415673,34.7285658 135.0056,49.5228846 135.347112,52.0728441 L134.665605,52.0728441 C134.665605,51.3928549 133.817137,50.882863 133.137147,50.882863 C132.457158,50.882863 132.96715,52.9243485 133.137147,53.4343404 L134.157131,59.0457692 C134.327129,61.0872546 134.327129,63.2972196 134.497126,65.5071845 C135.34863,70.2686268 136.027102,75.0300691 136.877088,79.7915114 L137.558595,79.7915114 C137.558595,76.9015573 138.747058,74.8600718 138.747058,72.140115 C138.747058,70.9501338 138.405546,70.2686268 138.405546,69.248643 C138.577061,67.54867 138.747058,65.8486969 137.895554,64.4872007 L137.895554,64.1472061 L138.747058,64.1472061 C138.747058,64.657198 139.25705,65.1671899 139.767042,65.5071845 C139.598563,66.1871737 139.25705,67.0386781 139.088571,67.7186673 L139.430083,67.7186673 C139.598563,67.2086754 139.598563,66.6971656 139.76856,66.1871737 C140.450067,66.1871737 140.960059,66.8671629 141.63853,67.0386781 C141.63853,60.9172573 141.297018,55.3058285 141.297018,49.5228846 L141.63853,49.5228846 L141.63853,49.864397 C142.148522,49.864397 142.320037,50.5443862 142.658514,50.8843808 C142.320037,50.8843808 141.980043,50.7159014 141.63853,50.5443862 C141.63853,50.5443862 144.528485,53.9443323 144.869997,54.2858447 L144.869997,54.6258393 L145.211509,54.6258393 C145.211509,53.4358582 145.039994,52.074362 144.869997,50.8843808 C145.038476,48.5044186 145.379989,46.1229385 145.551504,43.572979 C145.379989,40.8530222 145.379989,38.1315475 145.209992,35.2415934 L146.061496,35.2415934 L146.061496,35.581588 C146.571488,35.581588 149.802954,41.5330114 150.312946,42.5529952 C153.372898,42.5529952 156.772844,40.8530222 159.494319,39.8315205 L162.047314,38.8115367 C162.725785,38.6415394 163.405774,39.1515313 163.917284,39.4915259 C164.765753,40.5115097 164.595755,41.7014909 164.765753,42.891472 C164.937268,45.4429493 164.427276,47.8229116 164.255761,50.2028738 C163.917284,57.8557881 166.467244,61.9357233 172.930177,65.1671899 C176.50012,66.8671629 181.091565,66.0171764 184.154552,63.8072115 C185.684528,62.7872277 187.554498,60.9172573 188.234487,59.0457692 C188.915994,57.3457962 188.234487,54.455842 188.234487,52.4143566 C188.231452,46.8014099 189.424469,38.4700243 187.381465,33.8785793 L187.381465,33.8785793 Z M152.521393,35.9185469 C152.011402,35.9185469 151.842922,36.2585415 151.33293,36.5985361 C150.312946,37.108528 149.46296,36.4285388 148.611455,35.9185469 C148.611455,35.2385577 148.952968,34.727048 149.289927,34.2170561 C150.4162,34.3754644 151.508267,34.7201658 152.521393,35.2370399 L152.521393,35.9185469 L152.521393,35.9185469 Z M152.862906,31.6670965 L152.521393,31.6670965 C152.521393,32.0070911 146.739967,31.8370938 145.551504,32.0070911 L145.551504,31.6670965 C144.869997,31.6670965 145.551504,29.6271289 145.719984,29.117137 C146.398455,25.0356839 146.061496,19.7642497 145.888463,15.5127993 C145.888463,13.9828236 144.868479,11.9413381 145.888463,10.5813597 C146.56997,9.39137859 148.441458,9.22138129 149.629921,8.71138938 C150.649905,9.05290182 152.009884,9.39137859 152.519876,10.5813597 C153.201383,12.2813327 152.861388,14.6628128 152.861388,16.7027804 L152.862906,31.6670965 L152.862906,31.6670965 Z M173.098656,34.8985631 C173.608648,33.1970722 176.498602,31.4970992 178.031614,30.81711 L178.031614,30.4771154 C180.071581,32.6870803 174.968627,35.5785523 173.267136,35.9185469 L173.267136,35.5785523 C172.757144,35.5785523 172.928659,35.408555 173.098656,34.8985631 Z M179.220077,60.5757449 C178.541606,61.765726 177.518586,62.1072385 176.160125,62.1072385 C172.247152,61.9372412 173.097138,50.882863 172.928659,47.6544321 C172.757144,45.6129466 171.905639,42.3814801 172.757144,40.3430303 C173.267136,39.3215286 174.458635,38.6415394 175.478618,38.1315475 L175.478618,37.7915529 L178.878564,37.7915529 C179.05008,38.8115367 179.220077,39.8315205 179.388556,40.681507 C179.560072,44.4229655 179.560072,47.9929089 179.560072,51.7343674 C179.560072,54.4543242 180.240061,58.1942648 179.220077,60.5757449 L179.220077,60.5757449 Z M66.4784732,49.8628792 L66.4784732,49.18289 C65.6269688,49.18289 64.2669904,48.1629062 63.9269958,47.482917 C62.907012,45.272952 63.5870012,39.8300027 63.5870012,37.1100459 C63.5870012,34.3885712 63.5870012,31.4986171 63.0770093,29.117137 C62.0570255,24.6956893 58.6555616,20.6142362 55.5956101,17.2142902 C55.0856182,16.534301 54.405629,16.1943063 53.3841274,16.3643036 C51.6841544,16.3643036 45.9027282,18.5742686 44.8812266,19.7642497 C43.1812536,21.9757325 44.3712347,26.9071721 45.7327309,28.7771424 C45.7327309,29.1186548 45.5627336,29.1186548 46.0727255,29.1186548 C46.0727255,27.9286737 47.9426959,27.0771694 48.6242029,26.5671775 C50.3241759,25.7171909 52.7041382,23.8472206 54.5756263,25.7171909 C56.4471145,27.5871613 54.7456236,39.4915259 54.9156209,42.891472 L54.9156209,46.9729251 C54.7456236,48.3329035 54.7456236,49.8628792 53.7256398,50.882863 L53.7256398,51.2243755 C51.3441598,51.2243755 49.4741894,38.8100189 51.5141571,36.4300567 C51.3441598,35.5800701 51.0041651,34.7285658 50.8341678,33.8785793 L49.9841813,33.8785793 C49.9841813,35.0685604 41.1412859,34.3885712 40.4612967,33.1985901 C39.7813075,31.8386117 40.4612967,30.1371208 40.2912994,28.7771424 C40.1213021,25.8871882 39.4413129,22.3157271 39.9513048,19.2557756 C40.8012913,15.0043252 43.0127741,11.4343819 44.2027552,7.5229261 L34.339876,7.5229261 L31.7883987,9.05441965 C31.1084094,9.05441965 30.2584229,9.22289912 30.0869078,9.90440616 C29.7469132,11.4358997 30.5968997,13.4758673 30.5968997,15.1758404 C30.5968997,22.1472476 30.4269024,29.29017 30.2569051,36.2615772 C30.0869078,37.281561 29.4069186,37.7930707 28.5569321,38.1315475 L28.5569321,38.4715421 L27.8769429,38.4715421 C27.8769429,38.1315475 27.8769429,38.1315475 27.366951,38.1315475 C27.366951,38.9830519 23.4554952,41.7030087 22.775506,42.5529952 L21.5855249,42.5529952 L21.5855249,42.2114828 L21.2455302,42.2114828 C21.2455302,39.4915259 21.7555222,36.7700513 21.7555222,34.2200917 C21.7555222,31.3286198 21.0755329,28.098671 21.2455302,25.0372017 C21.4155276,22.825719 22.9455033,13.6443468 21.7555222,11.9443738 C20.565541,10.2428829 13.592616,11.6043792 11.7226457,11.6043792 C10.7026618,11.7743765 9.68267803,11.7743765 8.66117638,11.7743765 C7.64119257,12.1143711 9.00268882,14.3258539 9.34116559,14.8358458 C11.2111359,18.0673123 10.8711413,22.9987519 10.3611494,26.9102077 C10.3611494,28.2701861 10.5311467,29.4601673 10.5311467,30.8216635 L10.0211548,35.9231004 C9.8511575,38.9845697 11.0411386,42.2145184 10.0211548,44.764478 L10.0211548,45.1059904 C7.80967204,45.1059904 4.23972869,41.1945346 3.38974218,39.6645589 C2.36975836,39.6645589 4.57972329,37.963068 4.74972059,37.7945886 C5.4297098,37.7945886 5.25819467,36.4346102 5.59970711,35.9246182 L5.59970711,35.5846236 L5.2597125,35.5846236 C5.2597125,35.0746317 4.9197179,35.244629 4.40972599,35.244629 C1.17977725,35.5846236 -0.691710912,38.1345832 0.329790735,41.3660498 C1.68976915,45.445985 6.28121415,45.9574947 9.00268882,48.6774516 C10.5326645,50.2074273 10.3626672,63.3017731 9.34268342,65.3417407 C8.49269691,67.3817083 6.45272928,68.5716894 5.26123033,70.2716625 L4.75275626,70.2716625 L4.75275626,70.9531695 C6.62272659,70.7831722 8.32421744,70.6116571 10.0241905,70.2716625 C13.4256543,70.103183 18.1870966,70.7831722 20.9070535,72.4831452 C21.4170454,72.4831452 21.2470481,72.3131479 21.5870427,72.1431506 C21.5870427,68.5701716 18.6970885,51.3958906 20.5670589,49.5259203 C21.2470481,48.6759337 22.7770238,48.6759337 23.6285281,48.337457 C25.6684958,47.6574678 27.3684688,46.1259742 29.239957,45.1059904 C29.239957,44.5959985 29.4099543,44.764478 29.9199462,44.764478 L29.9199462,45.1059904 C30.5999354,45.1059904 30.0899435,48.337457 30.0899435,49.1859257 C30.4299381,51.2274111 30.7699327,53.437376 30.9414478,55.6488588 C30.9414478,57.3488318 30.7714505,59.0488049 30.7714505,60.7487779 C30.6014532,67.3801905 29.5814694,70.9531695 24.4785147,75.0331048 L24.4785147,76.0530886 C28.3899704,76.2230859 32.3014262,76.2230859 36.2113642,76.2230859 C39.2728335,76.5645983 41.822793,77.413067 44.5442677,77.9230589 L44.5442677,77.5830643 L44.2042731,77.5830643 C44.2042731,76.73156 42.3343027,75.3715815 41.9943081,74.521595 C41.1428038,72.9901015 40.2928173,71.2901285 39.9528227,69.4201581 C39.4428308,66.0186942 40.2928173,62.6187482 40.4628146,59.3872816 C40.2928173,55.647341 40.12282,52.0758798 39.9528227,48.3359391 C39.7828254,44.9344753 40.12282,41.5345292 40.2928173,38.1315475 L40.6328119,38.1315475 L40.6328119,37.7915529 L44.2042731,37.7915529 L44.2042731,38.1315475 L44.5442677,38.1315475 L44.5442677,38.9830519 C44.0342758,38.9830519 43.5242838,39.4930438 43.1842892,39.6630411 C40.2928173,41.7030087 42.8442946,46.2944537 43.3542865,48.8459311 C44.0342758,51.7358852 43.8642785,55.3073464 46.0742434,57.5173113 C48.1157288,59.3872816 50.8356857,56.3273302 53.0471684,56.3273302 C54.2371496,56.3273302 54.7471415,57.0073194 55.9371226,57.1788345 C56.9571064,57.3488318 58.1486053,57.3488318 59.1685892,57.5188291 C59.1685892,54.7988723 64.1000288,51.3974084 66.1399964,49.8674327 C66.3084759,49.8628792 66.3084759,49.8628792 66.4784732,49.8628792 L66.4784732,49.8628792 Z M123.954257,27.5871613 C122.934274,27.2471667 117.152848,26.9071721 116.301343,27.7571586 C116.471341,28.6071451 116.641338,29.6271289 116.811335,30.4786332 C116.811335,32.6885982 115.109844,37.9600324 113.749866,39.4915259 C113.239874,40.1715151 112.559885,40.5115097 111.709898,40.3430303 C111.199906,40.173033 110.689914,40.0015178 110.34992,39.3215286 C110.009925,38.6415394 108.649947,33.2001079 108.819944,32.3501214 C109.159939,30.990143 110.521435,30.4801511 110.179923,28.7786602 C110.179923,28.098671 110.009925,28.098671 109.499933,27.9286737 L109.499933,28.2686683 C107.969958,28.7786602 106.268467,29.2886521 104.738491,29.8001619 L101.16703,29.8001619 C99.8070514,29.8001619 98.2755578,29.8001619 97.4255713,28.9486575 C96.0655929,27.7586764 96.7455821,21.807253 96.7455821,19.5957702 L98.2755578,19.5957702 C98.2755578,21.9757325 100.487041,23.6772233 98.2755578,25.7171909 L98.2755578,26.5671775 C98.9555471,26.5671775 99.2955417,27.2471667 100.317043,27.2471667 C102.018534,27.0771694 103.718507,25.3771963 105.078486,24.6956893 C106.608461,24.0157001 107.96844,23.5057082 109.499933,22.825719 L109.839928,22.825719 C109.839928,21.2957432 103.888504,13.4728317 102.357011,12.9628398 C100.487041,12.4528479 98.7855498,13.3043522 97.0855767,13.8143441 L97.0855767,13.3043522 L96.7440643,13.3043522 C96.7440643,11.6028614 96.9140616,9.90288833 96.4040697,8.20291531 C93.1726031,10.4143981 89.6026598,14.8343279 86.2011959,15.8558296 C86.2011959,16.7058161 88.0711662,17.5558026 88.2411635,19.9372827 L88.2411635,27.2486845 C88.0711662,28.2686683 88.0711662,29.1186548 87.9011689,30.1386386 C88.2411635,35.0700782 88.5811581,41.5330114 87.0496646,45.7829439 C86.3696754,47.9944267 83.9881953,49.1844078 82.7982142,51.2258933 L82.4582196,51.2258933 L82.4582196,51.7358852 C84.8381818,51.7358852 87.5596565,52.0758798 90.1111338,52.0758798 C93.001088,52.0758798 95.7225626,51.5658879 98.2725222,52.0758798 L98.2725222,51.2258933 C97.592533,51.2258933 96.9125438,49.8659149 96.7425465,49.355923 C95.8925599,46.8044456 96.5725492,43.4029817 96.7425465,40.6830249 L96.7425465,32.0101268 L97.0840589,32.0101268 L97.0840589,31.6701322 C100.484005,31.6701322 105.245447,49.355923 104.565458,53.0973814 C104.395461,53.437376 98.7840319,61.2587698 98.4440373,61.6002822 C96.574067,63.1302579 84.6697023,62.7902633 84.1597104,60.5787806 C83.3082061,57.6888264 89.09115,57.0073194 91.301115,57.1788345 L91.301115,56.8388399 L91.6426274,56.8388399 L91.6426274,56.4973275 L91.301115,56.4973275 C91.301115,55.8173383 90.9611204,55.9873356 90.6211257,55.9873356 C87.5596565,55.9873356 83.6497185,56.4973275 81.099759,55.647341 L80.2482546,55.647341 C80.2482546,57.5157935 77.0183059,60.5772627 77.3583005,62.2772358 C77.8682924,65.5087023 95.8925599,69.2501608 99.6340184,68.230177 C101.503989,67.5501878 104.395461,65.1687077 105.756957,63.638732 C106.435428,62.7887455 106.946938,61.7687617 107.45693,60.9187752 C109.666895,57.6873086 111.878378,54.2873626 113.748348,50.8858987 C115.618318,46.9759607 117.149812,42.8929898 119.359777,39.3230465 C121.229747,36.2615772 124.801208,33.881615 125.141242,30.1401565 C125.144239,29.117137 124.974241,27.9271559 123.954257,27.5871613 L123.954257,27.5871613 Z" id="Shape"></path>
                <path d="M77.1913389,40.6799892 C76.681347,36.2585415 76.8513443,32.0070911 76.5113497,27.5871613 C76.5113497,25.5456758 76.0013577,23.6757055 76.0013577,21.4657406 L76.3413524,21.4657406 L76.3413524,20.9557486 L77.3613362,20.9557486 C77.7013308,21.9757325 77.8713281,22.825719 78.2128405,23.6772233 C78.7228324,25.7171909 79.062827,28.9486575 78.2128405,30.8186278 L78.2128405,31.3286198 L78.5528351,31.3286198 L78.5528351,31.6686144 C79.9128135,31.6686144 81.7827839,30.3086359 82.9742828,29.6286467 C83.8242693,29.1186548 85.1842477,28.6086629 85.6942396,27.7586764 C87.56421,24.0172179 83.9927488,17.0458107 82.4627731,14.1558566 C81.272792,14.1558566 80.2512903,15.1758404 79.0613092,15.515835 C75.8313604,16.1958242 76.3413524,13.1358727 76.681347,11.2643846 C76.0013577,11.0943873 75.4913658,10.92439 74.8113766,10.7543927 C73.4513982,11.2643846 72.0914198,11.4343819 70.8999208,12.1143711 C68.179964,13.8158619 65.9684812,17.0458107 62.907012,18.4057891 L62.907012,19.2572935 L63.2470066,19.2572935 L63.2470066,19.5972881 C64.9484974,19.5972881 65.4569715,18.5773042 67.498457,19.2572935 L68.0084489,21.8087708 C67.6684543,26.5702131 68.5184408,31.5016527 68.6884381,36.4330923 C68.3484435,39.6645589 68.1784462,42.8945076 68.0084489,46.2959715 C67.8384516,47.6559499 68.3484435,49.1859257 67.8384516,50.3759068 C67.498457,51.3958906 65.9684812,52.0758798 65.4569715,53.0973814 L64.9484974,53.0973814 L64.9484974,53.437376 C69.19843,53.437376 71.9199047,52.9273841 75.6613631,54.2888804 C75.6613631,53.6088912 77.5313335,52.0773976 78.2128405,51.737403 C77.8713281,47.9929089 77.5313335,44.4214477 77.1913389,40.6799892 L77.1913389,40.6799892 Z M237.547366,52.0728441 L237.205853,52.0728441 C236.864341,52.7528333 236.695861,53.4328225 236.527382,54.2843269 C235.675877,56.8358043 235.335883,60.065753 233.464395,62.2757179 L233.464395,62.6172304 C229.894451,62.6172304 229.894451,46.2929359 229.894451,42.891472 L230.232928,42.891472 C230.232928,42.2114828 230.74292,42.5514774 231.252912,42.7229925 C234.655894,43.2329844 240.095807,46.6329305 242.648802,43.0629871 C245.028765,40.0015178 244.008781,35.581588 242.30729,32.690116 C241.965778,32.0101268 241.628819,31.1601403 241.287306,30.4801511 C238.734311,27.9286737 234.655894,26.398698 231.252912,25.3787142 C231.252912,25.3787142 225.134527,30.1401565 224.45302,31.6701322 C223.093041,31.6701322 222.751529,29.9701592 222.241537,29.1201727 C222.241537,28.2686683 217.311615,28.2686683 216.291631,28.2686683 L216.291631,27.9286737 C215.78164,27.9286737 215.950119,27.4186818 215.950119,26.9086899 C216.118598,23.1672314 217.990087,18.2357918 216.291631,14.8343279 L216.291631,14.4943333 C215.950119,14.4943333 215.950119,14.324336 215.950119,14.8343279 C213.738636,14.8343279 209.487186,23.1672314 208.298723,25.0372017 C207.107224,25.0372017 206.597232,23.3357109 206.08724,22.4872422 C204.898777,22.1457298 203.707278,21.807253 202.517296,21.4672584 C201.835789,21.4672584 202.175784,21.1272638 202.175784,20.615754 C202.175784,17.7257999 203.535762,12.9628398 201.494277,10.7528748 C198.26281,14.1543387 195.202859,17.2142902 191.802913,20.1057621 C190.101422,21.6357379 186.701476,23.3357109 185.681492,25.0372017 C185.1715,25.0372017 185.33998,24.8672044 185.33998,25.3771963 L185.681492,25.3771963 C185.681492,26.5671775 192.144425,24.8672044 192.481384,29.4571316 L192.481384,34.8985631 C192.991376,44.591445 190.782929,54.9643161 192.142908,64.4872007 C192.311387,65.6771818 192.142908,67.3771548 192.821379,68.3986565 C194.351355,70.4386241 199.621271,72.6501069 202.515779,72.8201042 L202.515779,72.4785917 L202.854255,72.4785917 C202.854255,70.0986295 200.304296,68.9071306 200.132781,66.6956478 C200.304296,64.4856829 200.474293,62.4457152 200.645808,60.4042298 C200.645808,54.792801 200.645808,49.1798543 200.814288,43.5684255 C200.982767,40.6784714 201.32428,37.7869994 201.665792,34.8970453 C201.834272,32.0055733 201.32428,29.4556138 200.984285,26.9041364 L201.494277,26.9041364 C201.494277,26.3941445 204.725744,26.5641418 205.407251,26.5641418 L205.407251,26.9041364 C205.917243,26.9041364 203.70576,30.9855895 203.53728,32.0055733 L204.047272,32.0055733 L204.047272,32.3455679 C205.917243,32.3455679 207.617216,31.835576 208.127207,34.2155382 C208.808714,37.6170021 208.127207,41.5284579 207.958728,44.7584066 C207.790249,46.9698894 208.810232,48.4998651 208.46872,50.8798273 C207.790249,57.1727632 205.408768,66.3541354 210.33869,71.1155777 C212.718652,73.4955399 216.631626,75.1970307 219.691578,76.558527 C223.943028,78.4269795 225.134527,76.7270065 228.024481,73.8370523 C229.044465,72.8170685 229.894451,71.6255696 230.914435,70.6055857 C231.424427,70.6055857 231.252912,70.775583 231.252912,70.2640733 C230.574441,70.2640733 230.064449,69.5856019 229.385977,69.2440895 C228.025999,68.5641003 225.304524,68.0541084 223.601515,68.7340976 L218.840073,68.7340976 L218.840073,69.2440895 L218.498561,69.2440895 C218.498561,70.2640733 223.599998,71.285575 224.791497,71.285575 L224.791497,71.7955669 L225.133009,71.7955669 L225.133009,72.4755561 C224.451502,72.6455534 223.599998,72.8170685 222.921526,72.985548 C221.561548,72.985548 218.330081,71.9655642 217.478577,70.9455803 C216.118598,69.4140868 216.800106,49.6883284 216.630108,45.7768726 C216.630108,41.5269401 216.288596,36.9354951 216.288596,32.3440501 L216.798588,32.3440501 C216.798588,31.8340582 222.410017,32.0040555 223.258485,32.6840447 C223.771513,32.6840447 223.599998,32.5140474 223.599998,33.0240393 C223.090006,33.0240393 222.748493,33.8740258 222.580014,34.3840177 C221.220035,36.9354951 221.56003,40.3369589 221.220035,43.2269131 C221.051556,47.136851 220.200052,51.8998112 221.391551,55.6412696 C222.750011,60.7411887 229.211426,64.6541623 233.804389,66.1826202 C233.804389,65.6726283 235.334365,64.8226418 236.015872,64.3126499 C237.035856,63.1226688 237.885842,61.7611725 238.734311,60.5711914 C241.287306,56.8358043 241.287306,55.1343134 237.547366,52.0728441 L237.547366,52.0728441 Z M231.252912,29.7971262 C234.99437,30.6471127 236.01739,35.7485496 236.354349,39.318493 L236.354349,40.3399946 C234.484378,40.3399946 232.954403,39.6600054 230.914435,39.6600054 L230.914435,39.318493 C230.064449,39.3200108 230.74292,30.9871073 231.252912,29.7971262 L231.252912,29.7971262 Z" id="Shape"></path>
                <path d="M204.385749,19.934247 C204.21727,19.7642497 204.047272,19.7642497 204.047272,19.5942524 C204.21727,19.7642497 204.385749,20.4442389 204.385749,19.934247 Z M262.033048,23.5057082 C259.143094,23.5057082 257.441603,25.8856704 255.401636,27.2471667 C255.401636,26.7371748 254.720129,26.2271828 254.550131,25.7171909 C254.208619,24.1872152 254.550131,22.9972341 253.190153,22.1457298 L253.190153,22.4872422 C250.640194,22.4872422 246.048749,29.4586494 243.668786,31.3286198 L243.668786,32.3486036 C244.347258,32.3486036 245.028765,32.8585955 245.538757,33.0285928 C245.707236,34.7285658 245.880269,36.2585415 246.048749,37.7900351 C245.880269,38.9800162 245.880269,40.1699973 245.707236,41.5314936 C245.878751,46.1214207 246.048749,51.3928549 245.707236,55.9842999 C245.365724,58.8742541 245.365724,61.2557341 244.17726,63.6356964 C243.498789,64.9956748 241.965778,65.8471791 240.435802,66.1871737 C240.435802,67.0386781 240.945794,67.5471521 241.627301,67.8871467 C243.157277,68.5671359 244.855732,68.3986565 246.557223,68.7386511 C249.107182,69.0801635 251.148668,70.0986295 253.530148,70.4386241 C255.060123,70.7801365 256.761614,70.9501338 258.29159,71.2901285 C259.651568,71.4601258 261.181544,71.6301231 262.71152,71.8001204 C263.731504,71.6301231 264.071498,70.9501338 264.923003,70.2686268 L264.923003,69.9286322 C261.691536,69.9286322 258.12311,69.0786457 256.251622,66.8671629 C254.04014,63.9772088 254.891644,54.2843269 254.891644,50.2028738 C254.720129,47.9929089 254.550131,45.7814261 254.381652,43.5714612 C254.210137,39.8300027 254.720129,35.9200647 254.720129,32.008609 L255.061641,32.008609 C255.061641,31.3286198 256.42162,31.8386117 256.931612,32.008609 C256.931612,35.4100728 259.311574,38.8100189 256.931612,41.8714882 L256.931612,42.2114828 L256.42162,42.2114828 L256.42162,42.5529952 C258.633102,42.5529952 260.503073,40.6830249 262.033048,39.3215286 C263.393027,38.1315475 265.602992,37.1115637 266.624493,35.581588 C267.814475,33.708582 262.884553,25.5456758 262.033048,23.5057082 L262.033048,23.5057082 Z M133.647139,49.18289 L134.327129,49.18289 C134.327129,48.3329035 133.985616,47.8229116 133.647139,47.3129197 L133.647139,49.18289 Z M143.510019,53.4343404 L143.851531,53.4343404 C143.851531,52.9243485 143.341539,52.7543512 143.000027,52.4143566 L143.000027,53.0943458 C143.510019,53.0943458 143.510019,52.9243485 143.510019,53.4343404 L143.510019,53.4343404 Z M143.850013,57.174281 L143.850013,57.5142756 L144.191526,57.5142756 C144.191526,56.8358043 143.681534,56.4942918 143.510019,55.9842999 C143.510019,56.4942918 143.681534,56.8358043 143.850013,57.174281 L143.850013,57.174281 Z" id="Shape"></path>
            </g>
        </g>
    </g>
</svg>