<?xml version="1.0" encoding="UTF-8"?>
<svg width="200px" height="80px" viewBox="0 0 200 80" version="1.1" xmlns="http://www.w3.org/2000/svg" xmlns:xlink="http://www.w3.org/1999/xlink">
    <title>marvel</title>
    <g id="Page-2" stroke="none" stroke-width="1" fill="none" fill-rule="evenodd">
        <g id="Desktop-HD" transform="translate(-1139.000000, -250.000000)" fill-rule="nonzero">
            <g id="marvel" transform="translate(1139.000000, 250.000000)">
                <polygon id="Path" fill="#000000" points="0 0 200 0 200 80 0 80"></polygon>
                <path d="M169.248,18.6476 L169.248,6.3964 L134.9656,6.3964 L129.3216,47.3092 L123.7456,6.3964 L111.3824,6.3964 L112.764,17.3212 C111.3388,14.5212 106.2796,6.3964 95.1396,6.3964 C95.0656,6.3916 82.7616,6.3964 82.7616,6.3964 L82.7104,66.03 L73.7012,6.3964 L57.5076,6.3916 L48.186,68.1784 L48.1912,6.3964 L32.6904,6.3964 L27.1044,41.1036 L21.6628,6.3964 L6.1596,6.3964 L6.1596,73.5692 L18.3688,73.5692 L18.3688,41.1916 L23.9232,73.5692 L30.4128,73.5692 L35.8888,41.1916 L35.8888,73.5692 L59.424,73.5692 L60.8472,63.2372 L70.3224,63.2372 L71.7456,73.5692 L94.854,73.584 L94.8708,73.584 L94.8708,73.5692 L94.8996,73.5692 L94.8996,51.7676 L97.7292,51.358 L103.5936,73.584 L115.5468,73.584 L115.542,73.5692 L115.576,73.5692 L107.8808,47.5252 C111.7772,44.6536 116.1816,37.3736 115.0096,30.406 L115.0096,30.4036 C115.024,30.494 122.2752,73.614 122.2752,73.614 L136.4888,73.57 L146.2004,12.6888 L146.2004,73.57 L169.248,73.57 L169.248,61.4904 L158.3096,61.4904 L158.3096,46.0876 L169.248,46.0876 L169.248,33.8236 L158.3096,33.8236 L158.3096,18.6476 L169.248,18.6476 L169.248,18.6476 Z M62.2852,52.588 L65.64,23.8672 L69.116,52.588 L62.2852,52.588 Z M97.7684,39.326 C96.8308,39.7752 95.8548,40 94.8996,40.0024 L94.8996,18.3984 C94.9144,18.3984 94.9368,18.3958837 94.9608,18.3958837 C95.9128,18.3888 103.042,18.6816 103.042,29.0796 C103.042,34.5188 100.618,37.9492 97.7684,39.326 L97.7684,39.326 Z M193.8428,61.4792 L193.8428,73.5544 L171.3572,73.5544 L171.3572,6.3868 L183.466,6.3868 L183.466,61.4792 L193.8428,61.4792 Z" id="Shape" fill="#FFFFFF"></path>
            </g>
        </g>
    </g>
</svg>