<?xml version="1.0" encoding="UTF-8"?>
<svg width="180px" height="80px" viewBox="0 0 180 80" version="1.1" xmlns="http://www.w3.org/2000/svg" xmlns:xlink="http://www.w3.org/1999/xlink">
    <title>star-wars</title>
    <g id="Page-2" stroke="none" stroke-width="1" fill="none" fill-rule="evenodd">
        <g id="Desktop-HD" transform="translate(-21.000000, -388.000000)" fill="#000000" fill-rule="nonzero">
            <g id="star-wars" transform="translate(21.000000, 388.000000)">
                <path d="M0.0215971318,25.0135518 L0.0215971318,37.5162603 L36.5937493,37.5162603 C40.8446702,37.5162603 46.2756887,33.5855669 46.2756887,27.0831701 C46.2756887,24.467979 47.2759054,22.7620759 44.202117,19.3028284 L39.5242261,13.7601257 C36.8438035,11.259584 39.8444535,11.259584 42.0959294,11.259584 L57.5370216,11.259584 L57.5370216,37.5162603 L69.7827575,37.5162603 L69.7827575,11.259584 L86.2873212,11.259584 L86.2873212,0.0150531314 L32.8429368,0.0150531314 C26.3405399,0.0150531314 23.1609974,6.25850056 23.3398899,9.50920479 C23.5197707,12.759909 24.1177264,16.8497278 29.5210709,21.7628475 C34.4500043,26.2430671 27.0808189,25.0135518 26.3405399,25.0135518 L0.0215971318,25.0135518 L0.0215971318,25.0135518 Z M113.365322,0.0150531314 L93.6100538,0.0150531314 L82.5355203,37.5172487 L94.8603247,37.5172487 L96.8597697,32.2661111 L109.862587,32.2661111 L111.792847,37.5172487 L123.86562,37.5172487 L113.365322,0.0150531314 L113.365322,0.0150531314 Z M99.6113539,23.2631726 L103.862275,9.50920479 L107.86413,23.2631726 L99.6113539,23.2631726 L99.6113539,23.2631726 Z M162.877036,25.0135518 C158.126007,25.0135518 158.126007,23.2631726 158.126007,23.2631726 C162.197047,23.2631726 165.806524,17.3320458 165.806524,11.259584 C165.806524,5.18712222 159.876386,0.0150531314 155.12338,0.0150531314 L128.545488,0.0150531314 L128.545488,37.5172487 L142.05039,37.5172487 L142.05039,25.0145401 C142.05039,25.0145401 147.800647,31.7660028 150.801297,34.5165986 C153.802936,37.2671945 154.052002,37.5172487 158.125018,37.5172487 L179.324275,37.5172487 L179.324275,25.0145401 C179.326252,25.0135518 167.628065,25.0135518 162.877036,25.0135518 L162.877036,25.0135518 Z M150.623393,16.2616558 L142.052366,16.2616558 L142.052366,9.50920479 L150.623393,9.50920479 C154.553098,9.50920479 155.233088,16.2616558 150.623393,16.2616558 Z M0.0215971318,42.2672896 L13.8378314,42.2672896 L17.3385898,54.7719749 L20.589294,42.2672896 L35.0934243,42.2672896 L38.8442369,54.7719749 L42.5960378,42.2672896 L54.598638,42.2672896 L43.5952661,79.7783804 L32.5928826,79.7783804 L27.77168,62.0225575 L22.3396732,79.7783804 L11.0872355,79.7783804 L0.0215971318,42.2672896 Z M82.953595,42.4837397 L63.1983271,42.4837397 L52.1247819,79.9849469 L64.448598,79.9849469 L66.4490314,74.7347976 L79.4528366,74.7347976 L81.3830967,79.9849469 L93.4568586,79.9849469 L82.953595,42.4837397 Z M69.2006156,65.7308707 L73.4515365,51.976903 L77.4524033,65.7308707 L69.2006156,65.7308707 Z M163.126102,53.521704 C160.877591,53.521704 158.425479,53.7846068 161.10689,56.2841602 L165.785769,61.8278513 C168.858569,65.2870987 168.809151,66.7291107 168.809151,69.3462785 C168.809151,75.8476869 162.376928,79.7783804 158.126007,79.7783804 L128.578104,79.97704 C124.507064,79.97704 124.257998,79.7279742 121.256359,76.9773783 C118.256698,74.2267824 112.504463,67.4743314 112.504463,67.4743314 L112.504463,79.97704 L99.001538,79.97704 L99.001538,42.4758328 L125.57943,42.4758328 C130.330459,42.4758328 136.262575,47.6488902 136.262575,53.7203637 C136.262575,59.7938138 132.653097,65.7239522 128.58008,65.7239522 C128.58008,65.7239522 130.370982,67.5247376 133.371632,67.5247376 C136.373271,67.5247376 147.927157,67.5365979 147.927157,67.5365979 C148.666448,67.5365979 156.034645,68.7661133 151.1067,64.2858937 C145.703355,59.372774 145.105399,55.2849319 144.925519,52.0342276 C144.745638,48.7835234 147.556523,42.268278 154.055955,42.268278 L179.328228,42.268278 L179.328228,53.5226924 L163.126102,53.5226924 L163.126102,53.521704 L163.126102,53.521704 Z M121.076478,58.7214471 L112.503475,58.7214471 L112.503475,51.9689961 L121.076478,51.9689961 C125.007172,51.9689961 125.686173,58.7214471 121.076478,58.7214471 Z" id="Shape"></path>
            </g>
        </g>
    </g>
</svg>