<?xml version="1.0" encoding="UTF-8"?>
<svg width="64px" height="64px" viewBox="0 0 64 64" version="1.1" xmlns="http://www.w3.org/2000/svg" xmlns:xlink="http://www.w3.org/1999/xlink">
    <title>favicon</title>
    <g id="Page-1" stroke="none" stroke-width="1" fill="none" fill-rule="evenodd">
        <g id="Assets" transform="translate(-136.000000, -220.000000)">
            <g id="favicon" transform="translate(136.000000, 220.000000)">
                <rect id="Rectangle" fill="#D8D8D8" opacity="0" x="0" y="0" width="64" height="64" rx="8"></rect>
                <g id="icon" transform="translate(7.000000, 7.000000)" fill-rule="nonzero">
                    <path d="M12.960422,16.9615419 C12.7956708,17.8148539 12.4936271,18.6925462 12.1915834,19.6433795 C11.6149544,21.4231444 10.9559499,23.4710931 10.9559499,25.5434222 C10.9559499,27.6157512 11.6149544,29.6636999 12.1915834,31.4434649 C12.4936271,32.3942982 12.7956708,33.2963708 12.960422,34.1253024 C13.0977146,34.8323324 12.7407538,35.4906016 12.0268323,35.807546 C11.3129107,36.1488708 10.4891551,36.0269691 9.91252613,35.5149819 L0.96104824,27.5669905 C0.329502254,27.0062427 0,26.2504521 0,25.4946615 C0,24.7388709 0.329502254,24.0074606 0.96104824,23.4223324 L9.91252613,15.4743411 C10.4891551,14.9623539 11.3129107,14.8648325 12.0268323,15.181777 C12.7682123,15.6206231 13.1251731,16.2788923 12.960422,16.9615419 L12.960422,16.9615419 Z" id="Path" fill="#00AEEF"></path>
                    <path d="M16.895001,37.0379531 C17.7512953,37.2027249 18.6320552,37.5048065 19.5862118,37.8068881 C21.3721972,38.3835894 23.4273036,39.0426765 25.5068756,39.0426765 C27.5864476,39.0426765 29.641554,38.3835894 31.4275394,37.8068881 C32.381696,37.5048065 33.2869214,37.2027249 34.1187502,37.0379531 C34.8282513,36.9006433 35.4888212,37.2576488 35.8068734,37.9716599 C36.1493911,38.685671 36.0270634,39.5095299 35.5132867,40.0862311 L27.5375165,49.0388313 C26.9748088,49.6704564 26.2163766,50 25.4579445,50 C24.6995124,50 23.9655458,49.6704564 23.3783725,49.0388313 L15.4759989,40.0587691 C14.9622223,39.4820679 14.8643601,38.658209 15.1824123,37.9441979 C15.52493,37.2576488 16.1855,36.8731814 16.895001,37.0379531 L16.895001,37.0379531 Z" id="Path" fill="#FFBE0D"></path>
                    <path d="M34.104999,12.9701509 C33.2487047,12.8049261 32.3679448,12.5020138 31.4137882,12.1991016 C29.6278028,11.6208146 27.5726964,10.9599152 25.4931244,10.9599152 C23.4135524,10.9599152 21.358446,11.6208146 19.5724606,12.1991016 C18.618304,12.5020138 17.7130786,12.8049261 16.8812498,12.9701509 C16.1717487,13.1078383 15.5111788,12.7498511 15.1931266,12.0338767 C14.8506089,11.3179024 14.9729366,10.4917781 15.4867133,9.91349114 L23.4624835,0.936274163 C23.9762601,0.330449705 24.7346923,0 25.4686588,0 C26.227091,0 26.9610576,0.330449705 27.5482308,0.963811639 L35.5240011,9.94102862 C36.0377777,10.5193156 36.1356399,11.3454399 35.8175877,12.0614142 C35.4782259,12.7455086 34.789797,13.110804 34.104999,12.9701509 L34.104999,12.9701509 Z" id="Path" fill="#FE4A49"></path>
                    <path d="M37.0290052,34.0384581 C37.1938907,33.1851461 37.4961808,32.3074538 37.798471,31.3566205 C38.3755703,29.5768556 39.0351124,27.5289069 39.0351124,25.4565778 C39.0351124,23.3842488 38.3755703,21.3363001 37.798471,19.5565351 C37.4961808,18.6057018 37.1938907,17.7036292 37.0290052,16.8746976 C36.8916006,16.1676676 37.2488525,15.5093984 37.9633565,15.192454 C38.6778604,14.8511292 39.5022881,14.9730309 40.0793874,15.4850181 L49.0381678,23.4330095 C49.6702289,23.9937573 50,24.7495479 50,25.5053385 C50,26.2611291 49.6702289,26.9925394 49.0381678,27.5776676 L40.0793874,35.5256589 C39.5022881,36.0376461 38.6778604,36.1351675 37.9633565,35.818223 C37.2488525,35.4037572 36.8916006,34.745488 37.0290052,34.0384581 L37.0290052,34.0384581 Z" id="Path" fill="#3DDC97"></path>
                </g>
            </g>
        </g>
    </g>
</svg>